<svg width="130" height="130" viewBox="0 0 130 130" fill="none" xmlns="http://www.w3.org/2000/svg">
<rect width="130" height="130" rx="10" fill="#F7F8FA"/>
<rect x="0.5" y="0.5" width="129" height="129" rx="9.5" stroke="#DBE1E8" stroke-opacity="0.6"/>
<path fill-rule="evenodd" clip-rule="evenodd" d="M40.8965 128.463C40.8965 128.463 89.5261 128.463 112.332 128.463C129.004 128.463 129.209 110.382 129.209 110.382L129.004 67.1998L104.891 26.936L21.3477 106.918L40.8965 128.463Z" fill="url(#paint0_linear_14_1813)"/>
<g filter="url(#filter0_dd_14_1813)">
<rect x="19.8472" y="29.771" width="89.313" height="79.3893" rx="6" fill="#E8ECF1"/>
</g>
<g filter="url(#filter1_d_14_1813)">
<rect x="19.8472" y="26.7939" width="89.313" height="79.3893" rx="6" fill="#F7F8FA"/>
</g>
<g filter="url(#filter2_d_14_1813)">
<rect x="19.8472" y="23.8169" width="89.313" height="79.3893" rx="6" fill="white"/>
</g>
<path fill-rule="evenodd" clip-rule="evenodd" d="M19.8472 33.4169C19.8472 30.0566 19.8472 28.3764 20.5011 27.093C21.0764 25.964 21.9943 25.0461 23.1232 24.4709C24.4067 23.8169 26.0869 23.8169 29.4472 23.8169H99.5602C102.92 23.8169 104.601 23.8169 105.884 24.4709C107.013 25.0461 107.931 25.964 108.506 27.093C109.16 28.3764 109.16 30.0566 109.16 33.4169V48.6261H19.8472V33.4169Z" fill="url(#paint1_linear_14_1813)"/>
<circle cx="40.6871" cy="36.7173" r="2.9771" fill="#82120A" stroke="#C3352B"/>
<circle cx="88.3208" cy="36.7173" r="2.9771" fill="#82120A" stroke="#C3352B"/>
<g filter="url(#filter3_d_14_1813)">
<rect x="39.6948" y="34.7329" width="49.6183" height="3.96947" rx="1.98473" fill="url(#paint2_linear_14_1813)"/>
</g>
<rect x="39.6948" y="34.7329" width="7.93893" height="3.96947" rx="1.98473" fill="url(#paint3_linear_14_1813)"/>
<rect x="81.374" y="34.7329" width="7.93893" height="3.96947" rx="1.98473" fill="url(#paint4_linear_14_1813)"/>
<circle cx="90.3056" cy="66.4887" r="4.46183" fill="#E8ECF1" stroke="#BCC6D6"/>
<circle cx="73.435" cy="66.4887" r="4.46183" fill="#E8ECF1" stroke="#BCC6D6"/>
<circle cx="90.3056" cy="85.3437" r="4.46183" fill="#E8ECF1" stroke="#BCC6D6"/>
<circle cx="73.435" cy="85.3437" r="4.46183" fill="#E8ECF1" stroke="#BCC6D6"/>
<circle cx="56.5649" cy="85.3437" r="4.46183" fill="#E8ECF1" stroke="#BCC6D6"/>
<circle cx="39.6947" cy="85.3437" r="4.46183" fill="#E8ECF1" stroke="#BCC6D6"/>
<g filter="url(#filter4_d_14_1813)">
<path fill-rule="evenodd" clip-rule="evenodd" d="M33.7402 65.4962C33.7402 62.2078 36.406 59.542 39.6944 59.542C42.9828 59.542 45.6486 62.2078 45.6486 65.4962C45.6486 68.7846 42.9828 71.4504 39.6944 71.4504C36.406 71.4504 33.7402 68.7846 33.7402 65.4962Z" fill="#1AC964"/>
</g>
<path d="M38.6849 68.1922C38.8214 68.3287 38.9997 68.3967 39.1784 68.3967C39.3571 68.3967 39.5354 68.3287 39.6718 68.1922L43.1615 64.7025C43.4341 64.43 43.4341 63.9882 43.1615 63.7156C42.889 63.4431 42.4472 63.4431 42.1747 63.7156L39.1784 66.7115L37.578 65.1115C37.3055 64.839 36.8637 64.839 36.5911 65.1115C36.3186 65.3841 36.3186 65.8259 36.5911 66.0984L38.6849 68.1922Z" fill="white"/>
<g filter="url(#filter5_d_14_1813)">
<path fill-rule="evenodd" clip-rule="evenodd" d="M50.6108 65.4962C50.6108 62.2078 53.2766 59.542 56.565 59.542C59.8535 59.542 62.5192 62.2078 62.5192 65.4962C62.5192 68.7846 59.8535 71.4504 56.565 71.4504C53.2766 71.4504 50.6108 68.7846 50.6108 65.4962Z" fill="#1AC964"/>
</g>
<path d="M55.5556 68.1922C55.692 68.3287 55.8703 68.3967 56.049 68.3967C56.2277 68.3967 56.406 68.3287 56.5424 68.1922L60.0321 64.7025C60.3047 64.43 60.3047 63.9882 60.0321 63.7156C59.7596 63.4431 59.3178 63.4431 59.0453 63.7156L56.049 66.7115L54.4486 65.1115C54.1761 64.839 53.7343 64.839 53.4617 65.1115C53.1892 65.3841 53.1892 65.8259 53.4617 66.0984L55.5556 68.1922Z" fill="white"/>
<path fill-rule="evenodd" clip-rule="evenodd" d="M105.869 129.04C105.869 129.04 114.484 129.042 117.405 128.334C121.585 127.321 122.746 126.091 125.617 123.01C128.487 119.929 128.953 111.583 128.953 111.583L129.103 102.09L110.537 76.6011L80.3643 102.397L105.869 129.04Z" fill="url(#paint5_linear_14_1813)"/>
<g filter="url(#filter6_d_14_1813)">
<circle cx="95.2673" cy="89.3131" r="19.8473" fill="#E07220"/>
</g>
<g filter="url(#filter7_d_14_1813)">
<circle cx="95.2672" cy="89.3131" r="16.8702" fill="url(#paint6_linear_14_1813)"/>
</g>
<g filter="url(#filter8_d_14_1813)">
<circle cx="95.2673" cy="89.3127" r="14.8855" fill="white"/>
</g>
<circle cx="95.2671" cy="89.313" r="2.9771" fill="#DBE1E8"/>
<circle cx="95.267" cy="89.3129" r="1.98473" fill="#4B5C72"/>
<path d="M95.2671 89.3132H101.737" stroke="#4B5C72" stroke-linecap="round"/>
<path d="M95.2673 82.3662V89.3128" stroke="#4B5C72" stroke-linecap="round"/>
<circle cx="95.2673" cy="89.3132" r="0.992366" fill="#FFBB04"/>
<g filter="url(#filter9_d_14_1813)">
<rect x="94.2749" y="75.4199" width="1.98473" height="3.96947" rx="0.992366" fill="#4B5C72"/>
</g>
<g filter="url(#filter10_d_14_1813)">
<rect x="94.2749" y="99.2368" width="1.98473" height="3.96947" rx="0.992366" fill="#4B5C72"/>
</g>
<g filter="url(#filter11_d_14_1813)">
<rect x="81.374" y="88.3208" width="3.96947" height="1.98473" rx="0.992366" fill="#4B5C72"/>
</g>
<g filter="url(#filter12_d_14_1813)">
<rect x="105.191" y="88.3208" width="3.96947" height="1.98473" rx="0.992366" fill="#4B5C72"/>
</g>
<defs>
<filter id="filter0_dd_14_1813" x="17.8472" y="27.771" width="95.313" height="85.3892" filterUnits="userSpaceOnUse" color-interpolation-filters="sRGB">
<feFlood flood-opacity="0" result="BackgroundImageFix"/>
<feColorMatrix in="SourceAlpha" type="matrix" values="0 0 0 0 0 0 0 0 0 0 0 0 0 0 0 0 0 0 127 0" result="hardAlpha"/>
<feOffset dx="1" dy="1"/>
<feGaussianBlur stdDeviation="1.5"/>
<feColorMatrix type="matrix" values="0 0 0 0 0 0 0 0 0 0 0 0 0 0 0 0 0 0 0.1 0"/>
<feBlend mode="normal" in2="BackgroundImageFix" result="effect1_dropShadow_14_1813"/>
<feColorMatrix in="SourceAlpha" type="matrix" values="0 0 0 0 0 0 0 0 0 0 0 0 0 0 0 0 0 0 127 0" result="hardAlpha"/>
<feOffset dy="1"/>
<feGaussianBlur stdDeviation="1"/>
<feColorMatrix type="matrix" values="0 0 0 0 0 0 0 0 0 0 0 0 0 0 0 0 0 0 0.12 0"/>
<feBlend mode="normal" in2="effect1_dropShadow_14_1813" result="effect2_dropShadow_14_1813"/>
<feBlend mode="normal" in="SourceGraphic" in2="effect2_dropShadow_14_1813" result="shape"/>
</filter>
<filter id="filter1_d_14_1813" x="17.8472" y="25.7939" width="93.313" height="83.3892" filterUnits="userSpaceOnUse" color-interpolation-filters="sRGB">
<feFlood flood-opacity="0" result="BackgroundImageFix"/>
<feColorMatrix in="SourceAlpha" type="matrix" values="0 0 0 0 0 0 0 0 0 0 0 0 0 0 0 0 0 0 127 0" result="hardAlpha"/>
<feOffset dy="1"/>
<feGaussianBlur stdDeviation="1"/>
<feColorMatrix type="matrix" values="0 0 0 0 0 0 0 0 0 0 0 0 0 0 0 0 0 0 0.12 0"/>
<feBlend mode="normal" in2="BackgroundImageFix" result="effect1_dropShadow_14_1813"/>
<feBlend mode="normal" in="SourceGraphic" in2="effect1_dropShadow_14_1813" result="shape"/>
</filter>
<filter id="filter2_d_14_1813" x="17.8472" y="22.8169" width="93.313" height="83.3892" filterUnits="userSpaceOnUse" color-interpolation-filters="sRGB">
<feFlood flood-opacity="0" result="BackgroundImageFix"/>
<feColorMatrix in="SourceAlpha" type="matrix" values="0 0 0 0 0 0 0 0 0 0 0 0 0 0 0 0 0 0 127 0" result="hardAlpha"/>
<feOffset dy="1"/>
<feGaussianBlur stdDeviation="1"/>
<feColorMatrix type="matrix" values="0 0 0 0 0 0 0 0 0 0 0 0 0 0 0 0 0 0 0.12 0"/>
<feBlend mode="normal" in2="BackgroundImageFix" result="effect1_dropShadow_14_1813"/>
<feBlend mode="normal" in="SourceGraphic" in2="effect1_dropShadow_14_1813" result="shape"/>
</filter>
<filter id="filter3_d_14_1813" x="36.6948" y="33.7329" width="55.6182" height="9.96924" filterUnits="userSpaceOnUse" color-interpolation-filters="sRGB">
<feFlood flood-opacity="0" result="BackgroundImageFix"/>
<feColorMatrix in="SourceAlpha" type="matrix" values="0 0 0 0 0 0 0 0 0 0 0 0 0 0 0 0 0 0 127 0" result="hardAlpha"/>
<feOffset dy="2"/>
<feGaussianBlur stdDeviation="1.5"/>
<feColorMatrix type="matrix" values="0 0 0 0 0 0 0 0 0 0 0 0 0 0 0 0 0 0 0.5 0"/>
<feBlend mode="normal" in2="BackgroundImageFix" result="effect1_dropShadow_14_1813"/>
<feBlend mode="normal" in="SourceGraphic" in2="effect1_dropShadow_14_1813" result="shape"/>
</filter>
<filter id="filter4_d_14_1813" x="31.7402" y="57.542" width="23.9082" height="23.9082" filterUnits="userSpaceOnUse" color-interpolation-filters="sRGB">
<feFlood flood-opacity="0" result="BackgroundImageFix"/>
<feColorMatrix in="SourceAlpha" type="matrix" values="0 0 0 0 0 0 0 0 0 0 0 0 0 0 0 0 0 0 127 0" result="hardAlpha"/>
<feOffset dx="4" dy="4"/>
<feGaussianBlur stdDeviation="3"/>
<feColorMatrix type="matrix" values="0 0 0 0 0.101961 0 0 0 0 0.788235 0 0 0 0 0.392157 0 0 0 0.6 0"/>
<feBlend mode="normal" in2="BackgroundImageFix" result="effect1_dropShadow_14_1813"/>
<feBlend mode="normal" in="SourceGraphic" in2="effect1_dropShadow_14_1813" result="shape"/>
</filter>
<filter id="filter5_d_14_1813" x="48.6108" y="57.542" width="23.9082" height="23.9082" filterUnits="userSpaceOnUse" color-interpolation-filters="sRGB">
<feFlood flood-opacity="0" result="BackgroundImageFix"/>
<feColorMatrix in="SourceAlpha" type="matrix" values="0 0 0 0 0 0 0 0 0 0 0 0 0 0 0 0 0 0 127 0" result="hardAlpha"/>
<feOffset dx="4" dy="4"/>
<feGaussianBlur stdDeviation="3"/>
<feColorMatrix type="matrix" values="0 0 0 0 0.101961 0 0 0 0 0.788235 0 0 0 0 0.392157 0 0 0 0.6 0"/>
<feBlend mode="normal" in2="BackgroundImageFix" result="effect1_dropShadow_14_1813"/>
<feBlend mode="normal" in="SourceGraphic" in2="effect1_dropShadow_14_1813" result="shape"/>
</filter>
<filter id="filter6_d_14_1813" x="72.4199" y="66.4658" width="47.6948" height="47.6948" filterUnits="userSpaceOnUse" color-interpolation-filters="sRGB">
<feFlood flood-opacity="0" result="BackgroundImageFix"/>
<feColorMatrix in="SourceAlpha" type="matrix" values="0 0 0 0 0 0 0 0 0 0 0 0 0 0 0 0 0 0 127 0" result="hardAlpha"/>
<feOffset dx="1" dy="1"/>
<feGaussianBlur stdDeviation="2"/>
<feColorMatrix type="matrix" values="0 0 0 0 0 0 0 0 0 0 0 0 0 0 0 0 0 0 0.2 0"/>
<feBlend mode="normal" in2="BackgroundImageFix" result="effect1_dropShadow_14_1813"/>
<feBlend mode="normal" in="SourceGraphic" in2="effect1_dropShadow_14_1813" result="shape"/>
</filter>
<filter id="filter7_d_14_1813" x="76.397" y="71.4429" width="37.7402" height="37.7402" filterUnits="userSpaceOnUse" color-interpolation-filters="sRGB">
<feFlood flood-opacity="0" result="BackgroundImageFix"/>
<feColorMatrix in="SourceAlpha" type="matrix" values="0 0 0 0 0 0 0 0 0 0 0 0 0 0 0 0 0 0 127 0" result="hardAlpha"/>
<feOffset dy="1"/>
<feGaussianBlur stdDeviation="1"/>
<feColorMatrix type="matrix" values="0 0 0 0 0.472444 0 0 0 0 0.230587 0 0 0 0 0.0502941 0 0 0 1 0"/>
<feBlend mode="normal" in2="BackgroundImageFix" result="effect1_dropShadow_14_1813"/>
<feBlend mode="normal" in="SourceGraphic" in2="effect1_dropShadow_14_1813" result="shape"/>
</filter>
<filter id="filter8_d_14_1813" x="77.3818" y="72.4272" width="35.771" height="35.771" filterUnits="userSpaceOnUse" color-interpolation-filters="sRGB">
<feFlood flood-opacity="0" result="BackgroundImageFix"/>
<feColorMatrix in="SourceAlpha" type="matrix" values="0 0 0 0 0 0 0 0 0 0 0 0 0 0 0 0 0 0 127 0" result="hardAlpha"/>
<feOffset dy="1"/>
<feGaussianBlur stdDeviation="1.5"/>
<feColorMatrix type="matrix" values="0 0 0 0 0.737255 0 0 0 0 0.776471 0 0 0 0 0.839216 0 0 0 1 0"/>
<feBlend mode="normal" in2="BackgroundImageFix" result="effect1_dropShadow_14_1813"/>
<feBlend mode="normal" in="SourceGraphic" in2="effect1_dropShadow_14_1813" result="shape"/>
</filter>
<filter id="filter9_d_14_1813" x="94.2749" y="75.4199" width="1.98486" height="4.96924" filterUnits="userSpaceOnUse" color-interpolation-filters="sRGB">
<feFlood flood-opacity="0" result="BackgroundImageFix"/>
<feColorMatrix in="SourceAlpha" type="matrix" values="0 0 0 0 0 0 0 0 0 0 0 0 0 0 0 0 0 0 127 0" result="hardAlpha"/>
<feOffset dy="1"/>
<feColorMatrix type="matrix" values="0 0 0 0 0.858824 0 0 0 0 0.882353 0 0 0 0 0.909804 0 0 0 1 0"/>
<feBlend mode="normal" in2="BackgroundImageFix" result="effect1_dropShadow_14_1813"/>
<feBlend mode="normal" in="SourceGraphic" in2="effect1_dropShadow_14_1813" result="shape"/>
</filter>
<filter id="filter10_d_14_1813" x="94.2749" y="99.2368" width="1.98486" height="4.96924" filterUnits="userSpaceOnUse" color-interpolation-filters="sRGB">
<feFlood flood-opacity="0" result="BackgroundImageFix"/>
<feColorMatrix in="SourceAlpha" type="matrix" values="0 0 0 0 0 0 0 0 0 0 0 0 0 0 0 0 0 0 127 0" result="hardAlpha"/>
<feOffset dy="1"/>
<feColorMatrix type="matrix" values="0 0 0 0 0.858824 0 0 0 0 0.882353 0 0 0 0 0.909804 0 0 0 1 0"/>
<feBlend mode="normal" in2="BackgroundImageFix" result="effect1_dropShadow_14_1813"/>
<feBlend mode="normal" in="SourceGraphic" in2="effect1_dropShadow_14_1813" result="shape"/>
</filter>
<filter id="filter11_d_14_1813" x="81.374" y="88.3208" width="3.96924" height="2.98486" filterUnits="userSpaceOnUse" color-interpolation-filters="sRGB">
<feFlood flood-opacity="0" result="BackgroundImageFix"/>
<feColorMatrix in="SourceAlpha" type="matrix" values="0 0 0 0 0 0 0 0 0 0 0 0 0 0 0 0 0 0 127 0" result="hardAlpha"/>
<feOffset dy="1"/>
<feColorMatrix type="matrix" values="0 0 0 0 0.858824 0 0 0 0 0.882353 0 0 0 0 0.909804 0 0 0 1 0"/>
<feBlend mode="normal" in2="BackgroundImageFix" result="effect1_dropShadow_14_1813"/>
<feBlend mode="normal" in="SourceGraphic" in2="effect1_dropShadow_14_1813" result="shape"/>
</filter>
<filter id="filter12_d_14_1813" x="105.191" y="88.3208" width="3.96924" height="2.98486" filterUnits="userSpaceOnUse" color-interpolation-filters="sRGB">
<feFlood flood-opacity="0" result="BackgroundImageFix"/>
<feColorMatrix in="SourceAlpha" type="matrix" values="0 0 0 0 0 0 0 0 0 0 0 0 0 0 0 0 0 0 127 0" result="hardAlpha"/>
<feOffset dy="1"/>
<feColorMatrix type="matrix" values="0 0 0 0 0.858824 0 0 0 0 0.882353 0 0 0 0 0.909804 0 0 0 1 0"/>
<feBlend mode="normal" in2="BackgroundImageFix" result="effect1_dropShadow_14_1813"/>
<feBlend mode="normal" in="SourceGraphic" in2="effect1_dropShadow_14_1813" result="shape"/>
</filter>
<linearGradient id="paint0_linear_14_1813" x1="135.652" y1="91.2081" x2="103.601" y2="26.5472" gradientUnits="userSpaceOnUse">
<stop stop-opacity="0.01"/>
<stop offset="1" stop-opacity="0.1"/>
</linearGradient>
<linearGradient id="paint1_linear_14_1813" x1="19.8472" y1="23.8169" x2="19.8472" y2="48.6261" gradientUnits="userSpaceOnUse">
<stop stop-color="#F44336"/>
<stop offset="1" stop-color="#F44336"/>
</linearGradient>
<linearGradient id="paint2_linear_14_1813" x1="84.0285" y1="38.1726" x2="84.0285" y2="35.0487" gradientUnits="userSpaceOnUse">
<stop stop-color="white"/>
<stop offset="0.495197" stop-color="#E9E9E9"/>
<stop offset="1" stop-color="white"/>
</linearGradient>
<linearGradient id="paint3_linear_14_1813" x1="40.0128" y1="38.3374" x2="46.9196" y2="38.3374" gradientUnits="userSpaceOnUse">
<stop stop-color="#959595" stop-opacity="0.5"/>
<stop offset="1" stop-color="white" stop-opacity="0.01"/>
</linearGradient>
<linearGradient id="paint4_linear_14_1813" x1="88.5988" y1="34.884" x2="81.692" y2="34.884" gradientUnits="userSpaceOnUse">
<stop stop-color="#959595" stop-opacity="0.5"/>
<stop offset="1" stop-color="white" stop-opacity="0.01"/>
</linearGradient>
<linearGradient id="paint5_linear_14_1813" x1="132.015" y1="109.798" x2="114.171" y2="78.3044" gradientUnits="userSpaceOnUse">
<stop stop-opacity="0.01"/>
<stop offset="1" stop-opacity="0.1"/>
</linearGradient>
<linearGradient id="paint6_linear_14_1813" x1="112.137" y1="106.183" x2="112.137" y2="72.4429" gradientUnits="userSpaceOnUse">
<stop stop-color="#E8ECF1"/>
<stop offset="1" stop-color="white"/>
</linearGradient>
</defs>
</svg>
