<svg width="100" height="100" viewBox="0 0 100 100" fill="none" xmlns="http://www.w3.org/2000/svg">
<path d="M0 15.1778C0 9.86505 0 7.2087 1.03392 5.17951C1.94339 3.39458 3.39458 1.94339 5.17951 1.03392C7.2087 0 9.86506 0 15.1778 0H84.4264C89.7391 0 92.3955 0 94.4247 1.03392C96.2096 1.94339 97.6608 3.39458 98.5702 5.17951C99.6042 7.2087 99.6042 9.86506 99.6042 15.1778V84.4264C99.6042 89.7391 99.6042 92.3955 98.5702 94.4247C97.6608 96.2096 96.2096 97.6608 94.4247 98.5702C92.3955 99.6042 89.7391 99.6042 84.4264 99.6042H15.1778C9.86505 99.6042 7.2087 99.6042 5.17951 98.5702C3.39458 97.6608 1.94339 96.2096 1.03392 94.4247C0 92.3955 0 89.7391 0 84.4264V15.1778Z" fill="#F7F8FA"/>
<path d="M15.1778 0.474306H84.4264C87.0906 0.474306 89.0602 0.474674 90.6182 0.601971C92.1707 0.728815 93.2727 0.979319 94.2093 1.45653C95.905 2.32053 97.2836 3.69916 98.1476 5.39484C98.6248 6.33142 98.8754 7.43345 99.0022 8.98594C99.1295 10.544 99.1299 12.5136 99.1299 15.1778V84.4264C99.1299 87.0906 99.1295 89.0602 99.0022 90.6182C98.8754 92.1707 98.6248 93.2727 98.1476 94.2093C97.2836 95.905 95.905 97.2836 94.2093 98.1476C93.2727 98.6248 92.1707 98.8754 90.6182 99.0022C89.0602 99.1295 87.0906 99.1299 84.4264 99.1299H15.1778C12.5136 99.1299 10.544 99.1295 8.98594 99.0022C7.43344 98.8754 6.33142 98.6248 5.39484 98.1476C3.69916 97.2836 2.32053 95.905 1.45653 94.2093C0.979319 93.2727 0.728815 92.1707 0.601971 90.6182C0.474674 89.0602 0.474306 87.0906 0.474306 84.4264V15.1778C0.474306 12.5136 0.474674 10.544 0.601971 8.98594C0.728815 7.43344 0.979319 6.33142 1.45653 5.39484C2.32053 3.69916 3.69916 2.32053 5.39484 1.45653C6.33142 0.979319 7.43345 0.728815 8.98594 0.601971C10.544 0.474674 12.5136 0.474306 15.1778 0.474306Z" stroke="#DBE1E8" stroke-opacity="0.6" stroke-width="0.948611"/>
<path fill-rule="evenodd" clip-rule="evenodd" d="M69.5 98.5H79.2472C79.2472 98.5 87.5 99.4081 91.2472 98.5C99.5 96.5 98.6695 90.155 98.6695 90.155V48.7646L77.2472 23L74.7472 75.5L50 79.5L69.5 98.5Z" fill="url(#paint0_linear_1_18)"/>
<path fill-rule="evenodd" clip-rule="evenodd" d="M30 26H70C72.2091 26 74 27.7909 74 30V70C74 72.2091 72.2091 74 70 74H50V80H70C75.5228 80 80 75.5228 80 70V30C80 24.4772 75.5228 20 70 20H30C24.4772 20 20 24.4772 20 30V70C20 75.5228 24.4772 80 30 80H31.25V74H30C27.7909 74 26 72.2091 26 70V30C26 27.7909 27.7909 26 30 26Z" fill="url(#paint1_linear_1_18)"/>
<path fill-rule="evenodd" clip-rule="evenodd" d="M38 45.5891C38 39.1989 43.1989 34 49.5892 34C55.9795 34 61.1783 39.1989 61.1784 45.5891C61.1784 53.5196 50.8072 65.1621 50.3656 65.6539C49.9516 66.115 49.2275 66.1158 48.8128 65.6539C48.3712 65.1621 38 53.5196 38 45.5891ZM43.7581 45.5886C43.7581 48.8037 46.3737 51.4194 49.5888 51.4194C52.8039 51.4194 55.4195 48.8038 55.4195 45.5886C55.4195 42.3735 52.8039 39.7578 49.5888 39.7578C46.3738 39.7578 43.7581 42.3734 43.7581 45.5886Z" fill="url(#paint2_linear_1_18)"/>
<defs>
<linearGradient id="paint0_linear_1_18" x1="105.197" y1="75.2845" x2="80.3083" y2="30.2081" gradientUnits="userSpaceOnUse">
<stop stop-opacity="0.01"/>
<stop offset="1" stop-opacity="0.1"/>
</linearGradient>
<linearGradient id="paint1_linear_1_18" x1="50" y1="20" x2="50" y2="80" gradientUnits="userSpaceOnUse">
<stop stop-color="#67C6F0"/>
<stop offset="1" stop-color="#4582DE"/>
</linearGradient>
<linearGradient id="paint2_linear_1_18" x1="49.5892" y1="34" x2="49.5892" y2="66" gradientUnits="userSpaceOnUse">
<stop stop-color="#5953CB"/>
<stop offset="1" stop-color="#A36CD0"/>
</linearGradient>
</defs>
</svg>
