<svg width="130" height="130" viewBox="0 0 130 130" fill="none" xmlns="http://www.w3.org/2000/svg">
<rect width="130" height="130" rx="10" fill="#F7F8FA"/>
<rect x="0.5" y="0.5" width="129" height="129" rx="9.5" stroke="#DBE1E8" stroke-opacity="0.6"/>
<path fill-rule="evenodd" clip-rule="evenodd" d="M44.2598 129.595C44.2598 129.595 94.0027 130.192 112.476 129.595C130.225 126.395 130.15 118.154 129.372 98.5723C129.042 90.2777 109.934 41.0312 109.934 41.0312L14.6777 70.9805L44.2598 129.595Z" fill="url(#paint0_linear_14_1911)"/>
<g filter="url(#filter0_d_14_1911)">
<path fill-rule="evenodd" clip-rule="evenodd" d="M80.2445 87.145C81.3912 89.1635 73.5699 90.7928 72.0273 89.8149C71.056 89.1991 70.5374 88.7413 70.5374 89.8149C70.5374 90.8884 68.1407 92.3236 66.5418 92.3236C64.943 92.3236 62.3691 91.3359 59.9838 89.8149C51.5933 87.283 45.5858 84.7904 37.2955 72.4334L36.7498 71.5946L30.4468 70.589L34.9363 47.7541C34.9363 47.7541 37.7411 47.9138 38.7598 47.517C39.7773 47.1202 48.4156 41.6096 50.3518 40.517C52.288 39.4244 57.6997 37.0414 57.6997 37.0414C57.6997 37.0414 59.1891 36.4457 67.9763 39.7723C76.7635 43.099 87.7848 52.6797 87.7848 52.6797L93.8412 69.5405C93.8412 69.5405 97.5018 79.4383 88.8289 79.824C88.3777 79.8441 87.5013 80.174 87.7848 81.1396C88.8289 83.2513 86.3154 86.9615 82.2428 86.3798C81.5993 86.2879 80.4831 85.9563 80.2445 87.145Z" fill="#FFBB04"/>
<mask id="mask0_14_1911" style="mask-type:luminance" maskUnits="userSpaceOnUse" x="30" y="37" width="65" height="56">
<path fill-rule="evenodd" clip-rule="evenodd" d="M80.2445 87.145C81.3912 89.1635 73.5699 90.7928 72.0273 89.8149C71.056 89.1991 70.5374 88.7413 70.5374 89.8149C70.5374 90.8884 68.1407 92.3236 66.5418 92.3236C64.943 92.3236 62.3691 91.3359 59.9838 89.8149C51.5933 87.283 45.5858 84.7904 37.2955 72.4334L36.7498 71.5946L30.4468 70.589L34.9363 47.7541C34.9363 47.7541 37.7411 47.9138 38.7598 47.517C39.7773 47.1202 48.4156 41.6096 50.3518 40.517C52.288 39.4244 57.6997 37.0414 57.6997 37.0414C57.6997 37.0414 59.1891 36.4457 67.9763 39.7723C76.7635 43.099 87.7848 52.6797 87.7848 52.6797L93.8412 69.5405C93.8412 69.5405 97.5018 79.4383 88.8289 79.824C88.3777 79.8441 87.5013 80.174 87.7848 81.1396C88.8289 83.2513 86.3154 86.9615 82.2428 86.3798C81.5993 86.2879 80.4831 85.9563 80.2445 87.145Z" fill="white"/>
</mask>
<g mask="url(#mask0_14_1911)">
<path fill-rule="evenodd" clip-rule="evenodd" d="M90.2642 80.5092L88.9165 81.888C88.9165 81.888 75.7078 73.9985 71.5409 71.5812C71.1142 71.3337 71.0536 70.853 71.5409 70.853C72.0282 70.853 90.2642 80.5092 90.2642 80.5092Z" fill="#B57B1B"/>
<path fill-rule="evenodd" clip-rule="evenodd" d="M80.577 87.4897C79.3203 86.743 69.771 80.5165 66.4653 77.957C66.4653 77.957 66.6 77.4851 66.8996 77.645C72.0676 80.4034 82.868 86.712 82.868 86.712L80.577 87.4897Z" fill="#B57B1B"/>
<path fill-rule="evenodd" clip-rule="evenodd" d="M71.3862 90.5829C71.3862 90.5829 65.3448 86.1902 64.2344 85.0475C64.2344 85.0475 64.3546 84.4944 64.6397 84.7301C69.1933 88.4955 73.5708 90.5829 73.5708 90.5829H71.3862Z" fill="#B57B1B"/>
</g>
<g filter="url(#filter1_f_14_1911)">
<path fill-rule="evenodd" clip-rule="evenodd" d="M71.5017 40.5998C68.1798 40.2983 63.661 42.8052 59.735 43.4081C55.8079 44.0122 56.2106 45.3216 53.8955 48.2408C51.5805 51.1611 47.5532 56.7993 47.5532 56.7993C47.5532 56.7993 56.9159 63.947 62.8555 52.5695C65.3805 52.7213 72.6783 54.7512 73.6102 53.8549C74.5363 52.9643 69.104 49.1485 69.2876 48.9032C69.656 48.4111 74.8236 40.9024 71.5017 40.5998Z" fill="#B07515"/>
</g>
<g filter="url(#filter2_d_14_1911)">
<path fill-rule="evenodd" clip-rule="evenodd" d="M42.4647 69.1726C42.4647 69.1726 40.9753 67.0875 38.5924 68.4279C36.2094 69.7684 34.72 71.7045 34.72 71.7045C34.72 71.7045 33.5786 73.8897 35.9616 75.7258C38.3445 77.5631 39.7839 75.9748 39.7839 75.9748L42.4647 72.2955C42.4647 72.2955 43.8599 70.2009 42.4647 69.1726Z" fill="#FFE6A5"/>
</g>
<g filter="url(#filter3_d_14_1911)">
<path fill-rule="evenodd" clip-rule="evenodd" d="M60.8379 82.5775C60.8379 82.5775 63.9429 83.8024 61.9793 87.7951C60.7723 90.2484 58.9374 91.7639 58.9374 91.7639C58.9374 91.7639 56.9643 93.239 54.7708 91.1801C52.5761 89.1212 53.9153 87.446 53.9153 87.446L57.1192 84.2123C57.1192 84.2123 59.5999 81.3634 60.8379 82.5775Z" fill="#FFE296"/>
</g>
<g filter="url(#filter4_d_14_1911)">
<path fill-rule="evenodd" clip-rule="evenodd" d="M46.5039 69.7862L40.3475 75.9915C40.3475 75.9915 38.4614 77.133 39.5528 79.8639C41.2912 82.2468 42.7805 83.9352 44.9145 82.3958C46.5039 80.6085 51.5177 73.6586 51.5177 73.6586C51.5177 73.6586 53.355 70.9277 50.4251 69.5873C48.0421 68.5447 46.5039 69.7862 46.5039 69.7862Z" fill="#FFE6A5"/>
</g>
<g filter="url(#filter5_d_14_1911)">
<path fill-rule="evenodd" clip-rule="evenodd" d="M54.0066 73.1586L45.7556 82.7739C45.7556 82.7739 44.0279 84.7649 46.5098 86.7499C48.9928 88.7361 51.078 88.3394 51.078 88.3394C51.078 88.3394 52.3183 88.4383 54.9503 84.467C57.5811 80.4946 58.4247 79.2543 58.4247 79.2543C58.4247 79.2543 60.4609 76.7712 58.4247 74.2393C56.3896 71.7074 54.0066 73.1586 54.0066 73.1586Z" fill="#FFE6A5"/>
</g>
<path fill-rule="evenodd" clip-rule="evenodd" d="M92.8296 46.6808L98.3402 73.4392L105.092 71.9999L98.961 45.3403L92.8296 46.6808Z" fill="url(#paint1_linear_14_1911)"/>
<g filter="url(#filter6_d_14_1911)">
<path fill-rule="evenodd" clip-rule="evenodd" d="M97.5957 42.6594L105.241 76.319L117.305 73.2902L109.313 39.3828L97.5957 42.6594Z" fill="url(#paint2_linear_14_1911)"/>
</g>
<path opacity="0.9" fill-rule="evenodd" clip-rule="evenodd" d="M35.6767 46.0029L30.3102 72.4468L23.7236 71.1302L29.7001 44.1489L35.6767 46.0029Z" fill="url(#paint3_linear_14_1911)"/>
<g filter="url(#filter7_d_14_1911)">
<path fill-rule="evenodd" clip-rule="evenodd" d="M31.6385 40.8746L23.6853 75.1264L13 71.9058L21.4405 38.1914L31.6385 40.8746Z" fill="url(#paint4_linear_14_1911)"/>
</g>
<path fill-rule="evenodd" clip-rule="evenodd" d="M93.8569 48.3617C93.8569 48.3617 91.2463 48.9824 88.6274 46.6674C86.0109 44.3511 77.2511 38.5128 73.9292 38.2102C70.6073 37.9087 63.661 41.3319 59.735 41.9348C55.8079 42.5388 56.2106 43.8483 53.8955 46.7674C51.5805 49.6878 47.5532 55.3259 47.5532 55.3259C47.5532 55.3259 56.9159 62.4737 62.8555 51.0961C67.8896 51.3988 69.2991 49.7879 69.2991 49.7879C69.2991 49.7879 66.1786 54.7206 92.5546 71.7351L94.6106 73.1984C94.6106 73.1984 94.3926 71.7111 96.1791 71.0297L98.4 70.4197L93.8569 48.3617Z" fill="#FFE6A5"/>
<mask id="mask1_14_1911" style="mask-type:luminance" maskUnits="userSpaceOnUse" x="47" y="38" width="52" height="36">
<path fill-rule="evenodd" clip-rule="evenodd" d="M93.8569 48.3617C93.8569 48.3617 91.2463 48.9824 88.6274 46.6674C86.0109 44.3511 77.2511 38.5128 73.9292 38.2102C70.6073 37.9087 63.661 41.3319 59.735 41.9348C55.8079 42.5388 56.2106 43.8483 53.8955 46.7674C51.5805 49.6878 47.5532 55.3259 47.5532 55.3259C47.5532 55.3259 56.9159 62.4737 62.8555 51.0961C67.8896 51.3988 69.2991 49.7879 69.2991 49.7879C69.2991 49.7879 66.1786 54.7206 92.5546 71.7351L94.6106 73.1984C94.6106 73.1984 94.3926 71.7111 96.1791 71.0297L98.4 70.4197L93.8569 48.3617Z" fill="white"/>
</mask>
<g mask="url(#mask1_14_1911)">
</g>
</g>
<defs>
<filter id="filter0_d_14_1911" x="10" y="35" width="112.305" height="63.3237" filterUnits="userSpaceOnUse" color-interpolation-filters="sRGB">
<feFlood flood-opacity="0" result="BackgroundImageFix"/>
<feColorMatrix in="SourceAlpha" type="matrix" values="0 0 0 0 0 0 0 0 0 0 0 0 0 0 0 0 0 0 127 0" result="hardAlpha"/>
<feOffset dx="1" dy="2"/>
<feGaussianBlur stdDeviation="2"/>
<feColorMatrix type="matrix" values="0 0 0 0 0 0 0 0 0 0 0 0 0 0 0 0 0 0 0.16 0"/>
<feBlend mode="normal" in2="BackgroundImageFix" result="effect1_dropShadow_14_1911"/>
<feBlend mode="normal" in="SourceGraphic" in2="effect1_dropShadow_14_1911" result="shape"/>
</filter>
<filter id="filter1_f_14_1911" x="42.1167" y="35.1381" width="37.0367" height="29.314" filterUnits="userSpaceOnUse" color-interpolation-filters="sRGB">
<feFlood flood-opacity="0" result="BackgroundImageFix"/>
<feBlend mode="normal" in="SourceGraphic" in2="BackgroundImageFix" result="shape"/>
<feGaussianBlur stdDeviation="2.71828" result="effect1_foregroundBlur_14_1911"/>
</filter>
<filter id="filter2_d_14_1911" x="31.4468" y="65.9785" width="14.6382" height="14.6338" filterUnits="userSpaceOnUse" color-interpolation-filters="sRGB">
<feFlood flood-opacity="0" result="BackgroundImageFix"/>
<feColorMatrix in="SourceAlpha" type="matrix" values="0 0 0 0 0 0 0 0 0 0 0 0 0 0 0 0 0 0 127 0" result="hardAlpha"/>
<feOffset dy="1"/>
<feGaussianBlur stdDeviation="1.5"/>
<feColorMatrix type="matrix" values="0 0 0 0 0.297141 0 0 0 0 0.0467038 0 0 0 0 0.0467038 0 0 0 0.6 0"/>
<feBlend mode="normal" in2="BackgroundImageFix" result="effect1_dropShadow_14_1911"/>
<feBlend mode="normal" in="SourceGraphic" in2="effect1_dropShadow_14_1911" result="shape"/>
</filter>
<filter id="filter3_d_14_1911" x="50.5107" y="80.2764" width="15.1196" height="15.999" filterUnits="userSpaceOnUse" color-interpolation-filters="sRGB">
<feFlood flood-opacity="0" result="BackgroundImageFix"/>
<feColorMatrix in="SourceAlpha" type="matrix" values="0 0 0 0 0 0 0 0 0 0 0 0 0 0 0 0 0 0 127 0" result="hardAlpha"/>
<feOffset dy="1"/>
<feGaussianBlur stdDeviation="1.5"/>
<feColorMatrix type="matrix" values="0 0 0 0 0.297141 0 0 0 0 0.0467038 0 0 0 0 0.0467038 0 0 0 0.6 0"/>
<feBlend mode="normal" in2="BackgroundImageFix" result="effect1_dropShadow_14_1911"/>
<feBlend mode="normal" in="SourceGraphic" in2="effect1_dropShadow_14_1911" result="shape"/>
</filter>
<filter id="filter4_d_14_1911" x="36.2129" y="67.1704" width="18.8735" height="19.8164" filterUnits="userSpaceOnUse" color-interpolation-filters="sRGB">
<feFlood flood-opacity="0" result="BackgroundImageFix"/>
<feColorMatrix in="SourceAlpha" type="matrix" values="0 0 0 0 0 0 0 0 0 0 0 0 0 0 0 0 0 0 127 0" result="hardAlpha"/>
<feOffset dy="1"/>
<feGaussianBlur stdDeviation="1.5"/>
<feColorMatrix type="matrix" values="0 0 0 0 0.297141 0 0 0 0 0.0467038 0 0 0 0 0.0467038 0 0 0 0.6 0"/>
<feBlend mode="normal" in2="BackgroundImageFix" result="effect1_dropShadow_14_1911"/>
<feBlend mode="normal" in="SourceGraphic" in2="effect1_dropShadow_14_1911" result="shape"/>
</filter>
<filter id="filter5_d_14_1911" x="42.1704" y="70.7446" width="20.1592" height="21.627" filterUnits="userSpaceOnUse" color-interpolation-filters="sRGB">
<feFlood flood-opacity="0" result="BackgroundImageFix"/>
<feColorMatrix in="SourceAlpha" type="matrix" values="0 0 0 0 0 0 0 0 0 0 0 0 0 0 0 0 0 0 127 0" result="hardAlpha"/>
<feOffset dy="1"/>
<feGaussianBlur stdDeviation="1.5"/>
<feColorMatrix type="matrix" values="0 0 0 0 0.297141 0 0 0 0 0.0467038 0 0 0 0 0.0467038 0 0 0 0.6 0"/>
<feBlend mode="normal" in2="BackgroundImageFix" result="effect1_dropShadow_14_1911"/>
<feBlend mode="normal" in="SourceGraphic" in2="effect1_dropShadow_14_1911" result="shape"/>
</filter>
<filter id="filter6_d_14_1911" x="96.5957" y="38.3828" width="23.7095" height="40.936" filterUnits="userSpaceOnUse" color-interpolation-filters="sRGB">
<feFlood flood-opacity="0" result="BackgroundImageFix"/>
<feColorMatrix in="SourceAlpha" type="matrix" values="0 0 0 0 0 0 0 0 0 0 0 0 0 0 0 0 0 0 127 0" result="hardAlpha"/>
<feOffset dx="1" dy="1"/>
<feGaussianBlur stdDeviation="1"/>
<feColorMatrix type="matrix" values="0 0 0 0 0 0 0 0 0 0 0 0 0 0 0 0 0 0 0.1 0"/>
<feBlend mode="normal" in2="BackgroundImageFix" result="effect1_dropShadow_14_1911"/>
<feBlend mode="normal" in="SourceGraphic" in2="effect1_dropShadow_14_1911" result="shape"/>
</filter>
<filter id="filter7_d_14_1911" x="13" y="38.1914" width="24.6387" height="42.9351" filterUnits="userSpaceOnUse" color-interpolation-filters="sRGB">
<feFlood flood-opacity="0" result="BackgroundImageFix"/>
<feColorMatrix in="SourceAlpha" type="matrix" values="0 0 0 0 0 0 0 0 0 0 0 0 0 0 0 0 0 0 127 0" result="hardAlpha"/>
<feOffset dx="3" dy="3"/>
<feGaussianBlur stdDeviation="1.5"/>
<feColorMatrix type="matrix" values="0 0 0 0 0 0 0 0 0 0 0 0 0 0 0 0 0 0 0.1 0"/>
<feBlend mode="normal" in2="BackgroundImageFix" result="effect1_dropShadow_14_1911"/>
<feBlend mode="normal" in="SourceGraphic" in2="effect1_dropShadow_14_1911" result="shape"/>
</filter>
<linearGradient id="paint0_linear_14_1911" x1="136.49" y1="97.286" x2="111.869" y2="36.809" gradientUnits="userSpaceOnUse">
<stop stop-opacity="0.01"/>
<stop offset="1" stop-opacity="0.1"/>
</linearGradient>
<linearGradient id="paint1_linear_14_1911" x1="99.502" y1="32.8975" x2="82.258" y2="39.8053" gradientUnits="userSpaceOnUse">
<stop stop-color="#3BE4FF"/>
<stop offset="1" stop-color="#32C5F7"/>
</linearGradient>
<linearGradient id="paint2_linear_14_1911" x1="104.507" y1="24.3989" x2="78.4887" y2="48.2377" gradientUnits="userSpaceOnUse">
<stop stop-color="#00CCFF"/>
<stop offset="1" stop-color="#0A5DF1"/>
</linearGradient>
<linearGradient id="paint3_linear_14_1911" x1="19.3145" y1="56.2952" x2="36.6003" y2="63.5188" gradientUnits="userSpaceOnUse">
<stop stop-color="#09C3F4"/>
<stop offset="1" stop-color="#0F74E4"/>
</linearGradient>
<linearGradient id="paint4_linear_14_1911" x1="31.4447" y1="75.1264" x2="31.4447" y2="38.9595" gradientUnits="userSpaceOnUse">
<stop stop-color="#E33E13"/>
<stop offset="1" stop-color="#F7BA03"/>
</linearGradient>
</defs>
</svg>
