<svg width="130" height="130" viewBox="0 0 130 130" fill="none" xmlns="http://www.w3.org/2000/svg">
<rect width="130" height="130" rx="10" fill="#F7F8FA"/>
<rect x="0.5" y="0.5" width="129" height="129" rx="9.5" stroke="#DBE1E8" stroke-opacity="0.6"/>
<path d="M61.4432 84.2158C57.8528 87.1342 52.4461 85.3793 51.2557 80.9057C50.48 77.9873 47.7613 76.0135 44.7469 76.1786C44.0134 76.217 43.3107 76.1326 42.6541 75.9482L31.3491 97.6058L44.6586 96.3694L51.056 108.104L64.2426 82.914C63.2442 83.106 62.2803 83.5361 61.4432 84.2158V84.2158Z" fill="black"/>
<path d="M61.4432 84.2158C57.8528 87.1342 52.4461 85.3793 51.2557 80.9057C50.48 77.9873 47.7613 76.0135 44.7469 76.1786C44.0134 76.217 43.3107 76.1326 42.6541 75.9482L31.3491 97.6058L44.6586 96.3694L51.056 108.104L64.2426 82.914C63.2442 83.106 62.2803 83.5361 61.4432 84.2158V84.2158Z" fill="url(#paint0_linear_26_38)"/>
<path d="M85.378 76.8696C84.7213 77.0539 84.0186 77.1384 83.2813 77.1C80.2669 76.9348 77.552 78.9048 76.7725 81.8232C75.5821 86.2968 70.1792 88.0555 66.585 85.1371C65.7517 84.4574 64.7879 84.0235 63.7856 83.8315L77.0912 108.1L83.4925 96.3691L96.7981 97.6017L85.378 76.8657V76.8696Z" fill="black"/>
<path d="M85.378 76.8696C84.7213 77.0539 84.0186 77.1384 83.2813 77.1C80.2669 76.9348 77.552 78.9048 76.7725 81.8232C75.5821 86.2968 70.1792 88.0555 66.585 85.1371C65.7517 84.4574 64.7879 84.0235 63.7856 83.8315L77.0912 108.1L83.4925 96.3691L96.7981 97.6017L85.378 76.8657V76.8696Z" fill="url(#paint1_linear_26_38)"/>
<path d="M93.3922 52.0862C90.8578 50.4466 89.821 47.2517 90.9078 44.4331C92.5705 40.117 89.2297 35.5205 84.6102 35.7701C81.5958 35.9314 78.877 33.9576 78.1014 31.0392C76.911 26.5694 71.5042 24.8107 67.9138 27.7291C65.5714 29.6338 62.2114 29.6338 59.869 27.7291C56.2786 24.8107 50.8719 26.5694 49.6815 31.0392C48.902 33.9576 46.1871 35.9314 43.1727 35.7701C38.5494 35.5205 35.2086 40.117 36.8751 44.4331C37.9618 47.2517 36.925 50.4466 34.3906 52.0862C30.5046 54.5976 30.5046 60.2846 34.3906 62.7998C36.925 64.4395 37.9618 67.6306 36.8751 70.4491C35.2124 74.7653 38.5494 79.3656 43.1727 79.116C46.1871 78.9509 48.902 80.9246 49.6815 83.843C50.8719 88.3166 56.2786 90.0715 59.869 87.1531C62.2114 85.2523 65.5676 85.2523 67.9138 87.1531C71.5042 90.0715 76.911 88.3166 78.1014 83.843C78.877 80.9246 81.5958 78.9509 84.6102 79.116C89.2297 79.3656 92.5705 74.7653 90.9078 70.4491C89.821 67.6306 90.854 64.4357 93.3922 62.796C97.2783 60.2846 97.2783 54.5976 93.3922 52.0824V52.0862Z" fill="url(#paint2_linear_26_38)"/>
<g style="mix-blend-mode:multiply">
<path d="M93.3922 52.0862C90.8578 50.4466 89.821 47.2517 90.9078 44.4331C92.5705 40.117 89.2297 35.5205 84.6102 35.7701C81.5958 35.9314 78.877 33.9576 78.1014 31.0392C76.911 26.5694 71.5042 24.8107 67.9138 27.7291C65.5714 29.6338 62.2114 29.6338 59.869 27.7291C56.2786 24.8107 50.8719 26.5694 49.6815 31.0392C48.902 33.9576 46.1871 35.9314 43.1727 35.7701C38.5494 35.5205 35.2086 40.117 36.8751 44.4331C37.9618 47.2517 36.925 50.4466 34.3906 52.0862C30.5046 54.5976 30.5046 60.2846 34.3906 62.7998C36.925 64.4395 37.9618 67.6306 36.8751 70.4491C35.2124 74.7653 38.5494 79.3656 43.1727 79.116C46.1871 78.9509 48.902 80.9246 49.6815 83.843C50.8719 88.3166 56.2786 90.0715 59.869 87.1531C62.2114 85.2523 65.5676 85.2523 67.9138 87.1531C71.5042 90.0715 76.911 88.3166 78.1014 83.843C78.877 80.9246 81.5958 78.9509 84.6102 79.116C89.2297 79.3656 92.5705 74.7653 90.9078 70.4491C89.821 67.6306 90.854 64.4357 93.3922 62.796C97.2783 60.2846 97.2783 54.5976 93.3922 52.0824V52.0862Z" fill="url(#paint3_linear_26_38)"/>
</g>
<g style="mix-blend-mode:overlay">
<path d="M93.3922 52.0862C90.8578 50.4466 89.821 47.2517 90.9078 44.4331C92.5705 40.117 89.2297 35.5205 84.6102 35.7701C81.5958 35.9314 78.877 33.9576 78.1014 31.0392C76.911 26.5694 71.5042 24.8107 67.9138 27.7291C65.5714 29.6338 62.2114 29.6338 59.869 27.7291C56.2786 24.8107 50.8719 26.5694 49.6815 31.0392C48.902 33.9576 46.1871 35.9314 43.1727 35.7701C38.5494 35.5205 35.2086 40.117 36.8751 44.4331C37.9618 47.2517 36.925 50.4466 34.3906 52.0862C30.5046 54.5976 30.5046 60.2846 34.3906 62.7998C36.925 64.4395 37.9618 67.6306 36.8751 70.4491C35.2124 74.7653 38.5494 79.3656 43.1727 79.116C46.1871 78.9509 48.902 80.9246 49.6815 83.843C50.8719 88.3166 56.2786 90.0715 59.869 87.1531C62.2114 85.2523 65.5676 85.2523 67.9138 87.1531C71.5042 90.0715 76.911 88.3166 78.1014 83.843C78.877 80.9246 81.5958 78.9509 84.6102 79.116C89.2297 79.3656 92.5705 74.7653 90.9078 70.4491C89.821 67.6306 90.854 64.4357 93.3922 62.796C97.2783 60.2846 97.2783 54.5976 93.3922 52.0824V52.0862Z" fill="url(#paint4_linear_26_38)"/>
</g>
<path d="M64.1352 36.8916C52.5345 36.8916 43.1304 46.2996 43.1304 57.8964C43.1304 69.5047 52.5345 78.9089 64.1352 78.9089C75.7397 78.9089 85.1477 69.5009 85.1477 57.9002C85.1477 46.2958 75.7397 36.8916 64.1352 36.8916Z" fill="black"/>
<path d="M64.1352 36.8916C52.5345 36.8916 43.1304 46.2996 43.1304 57.8964C43.1304 69.5047 52.5345 78.9089 64.1352 78.9089C75.7397 78.9089 85.1477 69.5009 85.1477 57.9002C85.1477 46.2958 75.7397 36.8916 64.1352 36.8916Z" fill="url(#paint5_radial_26_38)"/>
<path d="M63.609 65.0806L55.5143 69.3353L57.0579 60.3228L50.5107 53.9369L59.5616 52.6236L63.609 44.4214L67.6563 52.6236L76.7034 53.9369L70.1562 60.3228L71.7037 69.3353L63.609 65.0806Z" fill="url(#paint6_linear_26_38)"/>
<g style="mix-blend-mode:multiply">
<path d="M63.609 65.0806L55.5143 69.3353L57.0579 60.3228L50.5107 53.9369L59.5616 52.6236L63.609 44.4214L67.6563 52.6236L76.7034 53.9369L70.1562 60.3228L71.7037 69.3353L63.609 65.0806Z" fill="url(#paint7_linear_26_38)"/>
</g>
<g style="mix-blend-mode:overlay">
<path d="M63.609 65.0806L55.5143 69.3353L57.0579 60.3228L50.5107 53.9369L59.5616 52.6236L63.609 44.4214L67.6563 52.6236L76.7034 53.9369L70.1562 60.3228L71.7037 69.3353L63.609 65.0806Z" fill="url(#paint8_linear_26_38)"/>
</g>
<path fill-rule="evenodd" clip-rule="evenodd" d="M89.8594 22.3262C87.8165 21.8154 86.2191 20.2142 85.7045 18.1713L85.62 17.8257L85.5317 18.1713C85.021 20.218 83.4197 21.8154 81.3768 22.3262L81.0312 22.4145L81.3768 22.5028C83.4197 23.0135 85.021 24.611 85.5317 26.6577L85.62 27.0033L85.7045 26.6577C86.2191 24.611 87.8165 23.0135 89.8594 22.5028L90.2088 22.4145L89.8632 22.3262H89.8594ZM37.0479 22.9252C35.2124 22.4644 33.7839 21.0321 33.3231 19.1966L33.2386 18.8817L33.1618 19.1966C32.701 21.0321 31.2648 22.4644 29.4293 22.9214L29.1183 23.002L29.4293 23.0788C31.2648 23.5396 32.701 24.9758 33.158 26.8074L33.2348 27.1223L33.3154 26.8074C33.7762 24.9758 35.2085 23.5434 37.0402 23.0826L37.3589 23.0058L37.044 22.9252H37.0479ZM24.326 71.1441C24.8444 73.2138 26.461 74.8305 28.5308 75.3489L28.8879 75.4372L28.5308 75.5255C26.461 76.0478 24.8444 77.6606 24.326 79.7342L24.2376 80.0874L24.1493 79.7342C23.6271 77.6644 22.0143 76.0478 19.9407 75.5255L19.5874 75.4372L19.9407 75.3489C22.0143 74.8305 23.6309 73.2138 24.1493 71.1441L24.2376 70.7908L24.326 71.1441Z" fill="url(#paint9_linear_26_38)"/>
<defs>
<linearGradient id="paint0_linear_26_38" x1="14.9995" y1="92.0902" x2="47.282" y2="124.788" gradientUnits="userSpaceOnUse">
<stop stop-color="#5B4ED3"/>
<stop offset="1" stop-color="#C86DD7"/>
</linearGradient>
<linearGradient id="paint1_linear_26_38" x1="47.3742" y1="92.5426" x2="78.7012" y2="125.333" gradientUnits="userSpaceOnUse">
<stop stop-color="#5B4ED3"/>
<stop offset="1" stop-color="#C86DD7"/>
</linearGradient>
<linearGradient id="paint2_linear_26_38" x1="10.6787" y1="-1.11916" x2="10.6787" y2="101.134" gradientUnits="userSpaceOnUse">
<stop stop-color="#FAD961"/>
<stop offset="1" stop-color="#F76B1C"/>
</linearGradient>
<linearGradient id="paint3_linear_26_38" x1="10.6787" y1="-1.11916" x2="10.6787" y2="101.134" gradientUnits="userSpaceOnUse">
<stop stop-color="#FAD961"/>
<stop offset="1" stop-color="#F76B1C"/>
</linearGradient>
<linearGradient id="paint4_linear_26_38" x1="10.6787" y1="-1.11916" x2="10.6787" y2="101.134" gradientUnits="userSpaceOnUse">
<stop stop-color="#FAD961"/>
<stop offset="1" stop-color="#F76B1C"/>
</linearGradient>
<radialGradient id="paint5_radial_26_38" cx="0" cy="0" r="1" gradientUnits="userSpaceOnUse" gradientTransform="translate(66.339 57.9002) scale(25.72)">
<stop stop-color="#F1EDDA"/>
<stop offset="1" stop-color="#FFDE55"/>
</radialGradient>
<linearGradient id="paint6_linear_26_38" x1="53.9575" y1="18.8971" x2="37.6203" y2="62.7237" gradientUnits="userSpaceOnUse">
<stop stop-color="#FAD961"/>
<stop offset="1" stop-color="#F76B1C"/>
</linearGradient>
<linearGradient id="paint7_linear_26_38" x1="43.4624" y1="33.1189" x2="43.4624" y2="71.4413" gradientUnits="userSpaceOnUse">
<stop stop-color="#FAD961"/>
<stop offset="1" stop-color="#F76B1C"/>
</linearGradient>
<linearGradient id="paint8_linear_26_38" x1="53.9575" y1="18.8971" x2="37.6203" y2="62.7237" gradientUnits="userSpaceOnUse">
<stop stop-color="#FAD961"/>
<stop offset="1" stop-color="#F76B1C"/>
</linearGradient>
<linearGradient id="paint9_linear_26_38" x1="97.2007" y1="87.5825" x2="97.2007" y2="-1.84592" gradientUnits="userSpaceOnUse">
<stop stop-color="#FF8800"/>
<stop offset="1" stop-color="#F7CE03"/>
</linearGradient>
</defs>
</svg>
