<svg width="130" height="130" viewBox="0 0 130 130" fill="none" xmlns="http://www.w3.org/2000/svg">
<rect width="130" height="130" rx="10" fill="#F7F8FA"/>
<rect x="0.5" y="0.5" width="129" height="129" rx="9.5" stroke="#DBE1E8" stroke-opacity="0.6"/>
<mask id="mask0_14_1598" style="mask-type:luminance" maskUnits="userSpaceOnUse" x="0" y="0" width="130" height="130">
<rect width="130" height="130" rx="10" fill="white"/>
<rect x="0.5" y="0.5" width="129" height="129" rx="9.5" stroke="white"/>
</mask>
<g mask="url(#mask0_14_1598)">
<path fill-rule="evenodd" clip-rule="evenodd" d="M16.7549 70.6211L63.6357 130.08H130.436V78.5189L114.157 51.3164L95.1934 62.5273L16.7549 70.6211Z" fill="url(#paint0_linear_14_1598)"/>
<g opacity="0.8" filter="url(#filter0_d_14_1598)">
<path fill-rule="evenodd" clip-rule="evenodd" d="M101 45C109.836 45 117 52.1642 117 61C117 69.8358 109.836 77 101 77C92.1642 77 85 69.8358 85 61C85 52.1642 92.1642 45 101 45Z" fill="url(#paint1_linear_14_1598)"/>
<mask id="mask1_14_1598" style="mask-type:luminance" maskUnits="userSpaceOnUse" x="85" y="45" width="32" height="32">
<path fill-rule="evenodd" clip-rule="evenodd" d="M101 45C109.836 45 117 52.1642 117 61C117 69.8358 109.836 77 101 77C92.1642 77 85 69.8358 85 61C85 52.1642 92.1642 45 101 45Z" fill="white"/>
</mask>
<g mask="url(#mask1_14_1598)">
<g filter="url(#filter1_d_14_1598)">
<path fill-rule="evenodd" clip-rule="evenodd" d="M111.168 72.2935L105.107 69.2518C104.47 68.9226 104.068 68.2527 104.068 67.5211V65.5305C104.208 65.3688 104.366 65.1609 104.534 64.9145C105.207 63.9385 105.714 62.8643 106.066 61.7381C106.697 61.5379 107.163 60.9372 107.163 60.223V58.0977C107.163 57.6318 106.961 57.2141 106.648 56.9214V53.8509C106.648 53.8509 107.259 49.0728 100.977 49.0728C94.6936 49.0728 95.3061 53.8509 95.3061 53.8509V56.9214C94.9914 57.2141 94.7916 57.6318 94.7916 58.0977V60.223C94.7916 60.7832 95.0762 61.2741 95.504 61.559C96.0186 63.8692 97.368 65.5305 97.368 65.5305V67.4711C97.368 68.1776 96.993 68.8302 96.3899 69.169L91.7911 71.7525C91.5216 71.9046 90.191 72.6592 89.9648 72.8633L89.0728 73.3097C89.0728 73.3097 92.0621 76.2251 94.9977 77.2963C97.9334 78.3674 99.2045 78.1654 101.319 78.1162C103.433 78.0669 105.041 77.8828 107.792 76.7436C110.543 75.6044 112.927 73.3097 112.927 73.3097L111.168 72.2935Z" fill="white"/>
</g>
</g>
</g>
<g opacity="0.9" filter="url(#filter2_d_14_1598)">
<path fill-rule="evenodd" clip-rule="evenodd" d="M30 45C38.8358 45 46 52.1642 46 61C46 69.8358 38.8358 77 30 77C21.1642 77 14 69.8358 14 61C14 52.1642 21.1642 45 30 45Z" fill="url(#paint2_linear_14_1598)"/>
<mask id="mask2_14_1598" style="mask-type:luminance" maskUnits="userSpaceOnUse" x="14" y="45" width="32" height="32">
<path fill-rule="evenodd" clip-rule="evenodd" d="M30 45C38.8358 45 46 52.1642 46 61C46 69.8358 38.8358 77 30 77C21.1642 77 14 69.8358 14 61C14 52.1642 21.1642 45 30 45Z" fill="white"/>
</mask>
<g mask="url(#mask2_14_1598)">
<g filter="url(#filter3_d_14_1598)">
<path fill-rule="evenodd" clip-rule="evenodd" d="M40.168 72.2935L34.1067 69.2518C33.4697 68.9226 33.0682 68.2527 33.0682 67.5211V65.5305C33.2077 65.3688 33.366 65.1609 33.5337 64.9145C34.2066 63.9385 34.7136 62.8643 35.066 61.7381C35.6974 61.5379 36.1629 60.9372 36.1629 60.223V58.0977C36.1629 57.6318 35.9613 57.2141 35.6484 56.9214V53.8509C35.6484 53.8509 36.2591 49.0728 29.9773 49.0728C23.6936 49.0728 24.3061 53.8509 24.3061 53.8509V56.9214C23.9914 57.2141 23.7916 57.6318 23.7916 58.0977V60.223C23.7916 60.7832 24.0762 61.2741 24.504 61.559C25.0186 63.8692 26.368 65.5305 26.368 65.5305V67.4711C26.368 68.1776 25.993 68.8302 25.3899 69.169L20.7911 71.7525C20.5216 71.9046 19.191 72.6592 18.9648 72.8633L18.0728 73.3097C18.0728 73.3097 21.0621 76.2251 23.9977 77.2963C26.9334 78.3674 28.2045 78.1654 30.3187 78.1162C32.4329 78.0669 34.0406 77.8828 36.7921 76.7436C39.5435 75.6044 41.9273 73.3097 41.9273 73.3097L40.168 72.2935Z" fill="white"/>
</g>
</g>
</g>
<g filter="url(#filter4_d_14_1598)">
<path fill-rule="evenodd" clip-rule="evenodd" d="M65 37C81.5671 37 95 50.4329 95 67C95 83.5671 81.5671 97 65 97C48.4329 97 35 83.5671 35 67C35 50.4329 48.4329 37 65 37Z" fill="url(#paint3_linear_14_1598)"/>
<mask id="mask3_14_1598" style="mask-type:luminance" maskUnits="userSpaceOnUse" x="35" y="37" width="60" height="60">
<path fill-rule="evenodd" clip-rule="evenodd" d="M65 37C81.5671 37 95 50.4329 95 67C95 83.5671 81.5671 97 65 97C48.4329 97 35 83.5671 35 67C35 50.4329 48.4329 37 65 37Z" fill="white"/>
</mask>
<g mask="url(#mask3_14_1598)">
<g filter="url(#filter5_d_14_1598)">
<path fill-rule="evenodd" clip-rule="evenodd" d="M84.0648 88.1751L72.6999 82.4719C71.5054 81.8547 70.7527 80.5985 70.7527 79.2269V75.4946C71.0142 75.1914 71.3111 74.8016 71.6256 74.3395C72.8872 72.5095 73.8378 70.4953 74.4986 68.3837C75.6824 68.0083 76.5553 66.8821 76.5553 65.543V61.558C76.5553 60.6845 76.1772 59.9012 75.5906 59.3525V53.5952C75.5906 53.5952 76.7355 44.6362 64.9572 44.6362C53.1753 44.6362 54.3238 53.5952 54.3238 53.5952V59.3525C53.7337 59.9012 53.3591 60.6845 53.3591 61.558V65.543C53.3591 66.5934 53.8927 67.5138 54.6949 68.048C55.6596 72.3795 58.1899 75.4946 58.1899 75.4946V79.1331C58.1899 80.4578 57.4866 81.6814 56.3558 82.3167L47.7332 87.1608C47.2279 87.4459 44.733 88.8609 44.3089 89.2435L42.6362 90.0806C42.6362 90.0806 48.2412 95.5469 53.7455 97.5553C59.2499 99.5637 61.6333 99.185 65.5974 99.0927C69.5615 99.0003 72.576 98.655 77.7349 96.519C82.8938 94.383 87.3635 90.0806 87.3635 90.0806L84.0648 88.1751Z" fill="white"/>
</g>
</g>
</g>
<path fill-rule="evenodd" clip-rule="evenodd" d="M65.8369 94.6824C83.2967 116.336 87.1655 120.215 96.0176 129.16C112.979 131.719 116.564 128.066 122.209 125.385C127.854 122.705 129.309 112.224 129.309 112.224L96.0176 71.6392C96.0176 71.6392 103.221 84.4811 93.3841 95.5535C81.0368 106.206 69.3187 98.8958 65.8369 94.6824Z" fill="url(#paint4_linear_14_1598)"/>
<path d="M92 94L99 101" stroke="url(#paint5_linear_14_1598)" stroke-width="3"/>
<g filter="url(#filter6_i_14_1598)">
<path fill-rule="evenodd" clip-rule="evenodd" d="M92.7278 69.2722C99.7574 76.3017 99.7574 87.6983 92.7278 94.7278C85.6983 101.757 74.3017 101.757 67.2722 94.7278C60.2426 87.6983 60.2426 76.3017 67.2722 69.2722C74.3017 62.2426 85.6983 62.2426 92.7278 69.2722Z" fill="url(#paint6_radial_14_1598)" fill-opacity="0.1"/>
</g>
<path fill-rule="evenodd" clip-rule="evenodd" d="M92.7278 69.2722C99.7574 76.3017 99.7574 87.6983 92.7278 94.7278C85.6983 101.757 74.3017 101.757 67.2722 94.7278C60.2426 87.6983 60.2426 76.3017 67.2722 69.2722C74.3017 62.2426 85.6983 62.2426 92.7278 69.2722Z" stroke="url(#paint7_radial_14_1598)" stroke-width="2"/>
<path fill-rule="evenodd" clip-rule="evenodd" d="M89.8994 70.1006C95.3669 75.568 95.3669 84.432 89.8994 89.8994C84.432 95.3669 75.568 95.3669 70.1006 89.8994C64.6331 84.432 64.6331 75.568 70.1006 70.1006C75.568 64.6331 84.432 64.6331 89.8994 70.1006Z" fill="url(#paint8_linear_14_1598)"/>
<mask id="mask4_14_1598" style="mask-type:luminance" maskUnits="userSpaceOnUse" x="95" y="97" width="14" height="14">
<path fill-rule="evenodd" clip-rule="evenodd" d="M95.1289 97.1992H108.93V111H95.1289V97.1992Z" fill="white"/>
</mask>
<g mask="url(#mask4_14_1598)">
<path fill-rule="evenodd" clip-rule="evenodd" d="M108.101 110.171C106.995 111.277 105.185 111.277 104.08 110.171L95.9584 102.049C94.8524 100.944 94.8524 99.1334 95.9584 98.0282C97.0637 96.9229 98.8734 96.9229 99.9786 98.0282L108.101 106.15C109.206 107.256 109.206 109.065 108.101 110.171Z" fill="url(#paint9_linear_14_1598)"/>
</g>
</g>
<defs>
<filter id="filter0_d_14_1598" x="81" y="42" width="44" height="44" filterUnits="userSpaceOnUse" color-interpolation-filters="sRGB">
<feFlood flood-opacity="0" result="BackgroundImageFix"/>
<feColorMatrix in="SourceAlpha" type="matrix" values="0 0 0 0 0 0 0 0 0 0 0 0 0 0 0 0 0 0 127 0" result="hardAlpha"/>
<feOffset dx="2" dy="3"/>
<feGaussianBlur stdDeviation="3"/>
<feColorMatrix type="matrix" values="0 0 0 0 0 0 0 0 0 0 0 0 0 0 0 0 0 0 0.2 0"/>
<feBlend mode="normal" in2="BackgroundImageFix" result="effect1_dropShadow_14_1598"/>
<feBlend mode="normal" in="SourceGraphic" in2="effect1_dropShadow_14_1598" result="shape"/>
</filter>
<filter id="filter1_d_14_1598" x="87.0728" y="49.0728" width="25.8545" height="31.0908" filterUnits="userSpaceOnUse" color-interpolation-filters="sRGB">
<feFlood flood-opacity="0" result="BackgroundImageFix"/>
<feColorMatrix in="SourceAlpha" type="matrix" values="0 0 0 0 0 0 0 0 0 0 0 0 0 0 0 0 0 0 127 0" result="hardAlpha"/>
<feOffset dx="-1" dy="1"/>
<feGaussianBlur stdDeviation="0.5"/>
<feColorMatrix type="matrix" values="0 0 0 0 0 0 0 0 0 0 0 0 0 0 0 0 0 0 0.3 0"/>
<feBlend mode="normal" in2="BackgroundImageFix" result="effect1_dropShadow_14_1598"/>
<feBlend mode="normal" in="SourceGraphic" in2="effect1_dropShadow_14_1598" result="shape"/>
</filter>
<filter id="filter2_d_14_1598" x="10" y="42" width="44" height="44" filterUnits="userSpaceOnUse" color-interpolation-filters="sRGB">
<feFlood flood-opacity="0" result="BackgroundImageFix"/>
<feColorMatrix in="SourceAlpha" type="matrix" values="0 0 0 0 0 0 0 0 0 0 0 0 0 0 0 0 0 0 127 0" result="hardAlpha"/>
<feOffset dx="2" dy="3"/>
<feGaussianBlur stdDeviation="3"/>
<feColorMatrix type="matrix" values="0 0 0 0 0 0 0 0 0 0 0 0 0 0 0 0 0 0 0.2 0"/>
<feBlend mode="normal" in2="BackgroundImageFix" result="effect1_dropShadow_14_1598"/>
<feBlend mode="normal" in="SourceGraphic" in2="effect1_dropShadow_14_1598" result="shape"/>
</filter>
<filter id="filter3_d_14_1598" x="16.0728" y="49.0728" width="25.8545" height="31.0908" filterUnits="userSpaceOnUse" color-interpolation-filters="sRGB">
<feFlood flood-opacity="0" result="BackgroundImageFix"/>
<feColorMatrix in="SourceAlpha" type="matrix" values="0 0 0 0 0 0 0 0 0 0 0 0 0 0 0 0 0 0 127 0" result="hardAlpha"/>
<feOffset dx="-1" dy="1"/>
<feGaussianBlur stdDeviation="0.5"/>
<feColorMatrix type="matrix" values="0 0 0 0 0 0 0 0 0 0 0 0 0 0 0 0 0 0 0.3 0"/>
<feBlend mode="normal" in2="BackgroundImageFix" result="effect1_dropShadow_14_1598"/>
<feBlend mode="normal" in="SourceGraphic" in2="effect1_dropShadow_14_1598" result="shape"/>
</filter>
<filter id="filter4_d_14_1598" x="31" y="34" width="72" height="72" filterUnits="userSpaceOnUse" color-interpolation-filters="sRGB">
<feFlood flood-opacity="0" result="BackgroundImageFix"/>
<feColorMatrix in="SourceAlpha" type="matrix" values="0 0 0 0 0 0 0 0 0 0 0 0 0 0 0 0 0 0 127 0" result="hardAlpha"/>
<feOffset dx="2" dy="3"/>
<feGaussianBlur stdDeviation="3"/>
<feColorMatrix type="matrix" values="0 0 0 0 0 0 0 0 0 0 0 0 0 0 0 0 0 0 0.2 0"/>
<feBlend mode="normal" in2="BackgroundImageFix" result="effect1_dropShadow_14_1598"/>
<feBlend mode="normal" in="SourceGraphic" in2="effect1_dropShadow_14_1598" result="shape"/>
</filter>
<filter id="filter5_d_14_1598" x="35.6362" y="41.6362" width="54.7271" height="64.5454" filterUnits="userSpaceOnUse" color-interpolation-filters="sRGB">
<feFlood flood-opacity="0" result="BackgroundImageFix"/>
<feColorMatrix in="SourceAlpha" type="matrix" values="0 0 0 0 0 0 0 0 0 0 0 0 0 0 0 0 0 0 127 0" result="hardAlpha"/>
<feOffset dx="-2" dy="2"/>
<feGaussianBlur stdDeviation="2.5"/>
<feColorMatrix type="matrix" values="0 0 0 0 0 0 0 0 0 0 0 0 0 0 0 0 0 0 0.3 0"/>
<feBlend mode="normal" in2="BackgroundImageFix" result="effect1_dropShadow_14_1598"/>
<feBlend mode="normal" in="SourceGraphic" in2="effect1_dropShadow_14_1598" result="shape"/>
</filter>
<filter id="filter6_i_14_1598" x="61" y="63" width="38" height="43" filterUnits="userSpaceOnUse" color-interpolation-filters="sRGB">
<feFlood flood-opacity="0" result="BackgroundImageFix"/>
<feBlend mode="normal" in="SourceGraphic" in2="BackgroundImageFix" result="shape"/>
<feColorMatrix in="SourceAlpha" type="matrix" values="0 0 0 0 0 0 0 0 0 0 0 0 0 0 0 0 0 0 127 0" result="hardAlpha"/>
<feOffset dy="6"/>
<feGaussianBlur stdDeviation="2.5"/>
<feComposite in2="hardAlpha" operator="arithmetic" k2="-1" k3="1"/>
<feColorMatrix type="matrix" values="0 0 0 0 1 0 0 0 0 1 0 0 0 0 1 0 0 0 0.5 0"/>
<feBlend mode="normal" in2="shape" result="effect1_innerShadow_14_1598"/>
</filter>
<linearGradient id="paint0_linear_14_1598" x1="114.76" y1="89.8012" x2="100.784" y2="51.86" gradientUnits="userSpaceOnUse">
<stop stop-opacity="0.01"/>
<stop offset="1" stop-opacity="0.1"/>
</linearGradient>
<linearGradient id="paint1_linear_14_1598" x1="68.84" y1="61.32" x2="101.48" y2="93.64" gradientUnits="userSpaceOnUse">
<stop stop-color="#3023AE"/>
<stop offset="1" stop-color="#C86DD7"/>
</linearGradient>
<linearGradient id="paint2_linear_14_1598" x1="5.54005" y1="65.8116" x2="39.3331" y2="85.4927" gradientUnits="userSpaceOnUse">
<stop stop-color="#00CCFF"/>
<stop offset="1" stop-color="#0A5DF1"/>
</linearGradient>
<linearGradient id="paint3_linear_14_1598" x1="58.3564" y1="24.9834" x2="24.1201" y2="75.1221" gradientUnits="userSpaceOnUse">
<stop stop-color="#FF6A35"/>
<stop offset="1" stop-color="#FF1F74"/>
</linearGradient>
<linearGradient id="paint4_linear_14_1598" x1="120.556" y1="100.169" x2="107.949" y2="74.3917" gradientUnits="userSpaceOnUse">
<stop stop-opacity="0.01"/>
<stop offset="1" stop-opacity="0.1"/>
</linearGradient>
<linearGradient id="paint5_linear_14_1598" x1="94.5145" y1="94.577" x2="92.6104" y2="96.548" gradientUnits="userSpaceOnUse">
<stop stop-color="#545454"/>
<stop offset="0.533582" stop-color="#939393"/>
<stop offset="1" stop-color="#545454"/>
</linearGradient>
<radialGradient id="paint6_radial_14_1598" cx="0" cy="0" r="1" gradientUnits="userSpaceOnUse" gradientTransform="translate(80 82) rotate(90) scale(17.8217)">
<stop stop-color="white"/>
<stop offset="0.565908"/>
<stop offset="1" stop-color="white"/>
</radialGradient>
<radialGradient id="paint7_radial_14_1598" cx="0" cy="0" r="1" gradientUnits="userSpaceOnUse" gradientTransform="translate(80 82) rotate(90) scale(18.9609 18.9291)">
<stop/>
<stop offset="0.884759" stop-color="#3C3C3C"/>
<stop offset="0.953315" stop-color="#999999"/>
<stop offset="1" stop-color="#3C3C3C"/>
</radialGradient>
<linearGradient id="paint8_linear_14_1598" x1="88.6138" y1="83.2276" x2="88.6138" y2="66" gradientUnits="userSpaceOnUse">
<stop stop-color="white" stop-opacity="0.01"/>
<stop offset="1" stop-color="white"/>
</linearGradient>
<linearGradient id="paint9_linear_14_1598" x1="102.082" y1="99.2576" x2="97.4913" y2="104.02" gradientUnits="userSpaceOnUse">
<stop stop-color="#252525"/>
<stop offset="0.524932" stop-color="#6A6A6A"/>
<stop offset="1" stop-color="#252525"/>
</linearGradient>
</defs>
</svg>
