<svg width="130" height="130" viewBox="0 0 130 130" fill="none" xmlns="http://www.w3.org/2000/svg">
<rect width="130" height="130" rx="10" fill="#F7F8FA"/>
<rect x="0.5" y="0.5" width="129" height="129" rx="9.5" stroke="#DBE1E8" stroke-opacity="0.6"/>
<path fill-rule="evenodd" clip-rule="evenodd" d="M55.5429 127.125H102.439C102.439 127.125 115.568 126.671 119.933 123.685C124.298 120.698 127.261 112.979 127.261 112.979V86.5725L96.2013 30.3628L34.9741 110.493L55.5429 127.125Z" fill="url(#paint0_linear_14_1887)"/>
<g filter="url(#filter0_ddd_14_1887)">
<path fill-rule="evenodd" clip-rule="evenodd" d="M46.6411 23.2701C46.6411 21.0299 46.6411 19.9098 47.0771 19.0542C47.4606 18.3015 48.0725 17.6896 48.8252 17.3061C49.6808 16.8701 50.8009 16.8701 53.0411 16.8701H78.1845C80.4247 16.8701 81.5448 16.8701 82.4005 17.3061C83.1531 17.6896 83.7651 18.3015 84.1486 19.0542C84.5845 19.9098 84.5845 21.0299 84.5845 23.2701V56.5648L74.7192 66.4884H56.2411C52.8808 66.4884 51.2006 66.4884 49.9172 65.8345C48.7882 65.2592 47.8703 64.3414 47.2951 63.2124C46.6411 61.9289 46.6411 60.2488 46.6411 56.8884V23.2701Z" fill="white"/>
</g>
<g filter="url(#filter1_ddd_14_1887)">
<path fill-rule="evenodd" clip-rule="evenodd" d="M38.7021 28.232C38.7021 25.9918 38.7021 24.8717 39.1381 24.0161C39.5216 23.2634 40.1335 22.6515 40.8862 22.268C41.7418 21.832 42.8619 21.832 45.1021 21.832H85.4229C87.6632 21.832 88.7833 21.832 89.6389 22.268C90.3915 22.6515 91.0035 23.2634 91.387 24.0161C91.8229 24.8717 91.8229 25.9918 91.8229 28.232V77.4045L78.0115 91.2977H48.3022C44.9418 91.2977 43.2617 91.2977 41.9782 90.6437C40.8492 90.0685 39.9313 89.1506 39.3561 88.0216C38.7021 86.7382 38.7021 85.058 38.7021 81.6977V28.232Z" fill="white"/>
</g>
<g filter="url(#filter2_ddd_14_1887)">
<path fill-rule="evenodd" clip-rule="evenodd" d="M32.748 37.3861C32.748 34.0258 32.748 32.3457 33.402 31.0622C33.9772 29.9332 34.8951 29.0153 36.0241 28.4401C37.3076 27.7861 38.9877 27.7861 42.348 27.7861H87.6519C91.0122 27.7861 92.6923 27.7861 93.9758 28.4401C95.1048 29.0153 96.0227 29.9332 96.5979 31.0622C97.2519 32.3457 97.2519 34.0258 97.2519 37.3861V95.2671L80.4809 112.137H42.3481C38.9877 112.137 37.3076 112.137 36.0241 111.483C34.8951 110.908 33.9772 109.99 33.402 108.861C32.748 107.578 32.748 105.898 32.748 102.537V37.3861Z" fill="white"/>
</g>
<path fill-rule="evenodd" clip-rule="evenodd" d="M42.6719 97.7593C42.6719 97.4788 42.8992 97.2515 43.1797 97.2515H87.8129C88.0934 97.2515 88.3207 97.4788 88.3207 97.7593C88.3207 98.0397 88.0934 98.2671 87.8129 98.2671H43.1797C42.8992 98.2671 42.6719 98.0397 42.6719 97.7593Z" fill="#BCC6D6"/>
<path opacity="0.8" fill-rule="evenodd" clip-rule="evenodd" d="M53.5879 98.244C53.5879 91.1191 51.8107 85.3433 49.6184 85.3433C47.4261 85.3433 45.6489 91.1191 45.6489 98.244" fill="#1AC964"/>
<path opacity="0.6" fill-rule="evenodd" clip-rule="evenodd" d="M82.7414 98.244C82.7414 92.7633 78.7673 88.3203 76.6613 88.3203C74.5553 88.3203 70.833 92.7633 70.833 98.244" fill="#F44336"/>
<path opacity="0.8" fill-rule="evenodd" clip-rule="evenodd" d="M67.4809 98.2441C67.4809 93.8596 65.7037 90.3052 63.5115 90.3052C61.3192 90.3052 59.542 93.8596 59.542 98.2441" fill="#1676E2"/>
<path opacity="0.6" fill-rule="evenodd" clip-rule="evenodd" d="M59.5421 98.2439C59.5421 94.4074 58.2092 91.2974 56.565 91.2974C54.9208 91.2974 53.5879 94.4074 53.5879 98.2439" fill="#F4A21B"/>
<path opacity="0.6" fill-rule="evenodd" clip-rule="evenodd" d="M72.4428 98.244C72.4428 92.7633 71.332 88.3203 69.9619 88.3203C68.5917 88.3203 67.481 92.7633 67.481 98.244" fill="#FF8D21"/>
<g filter="url(#filter3_d_14_1887)">
<path fill-rule="evenodd" clip-rule="evenodd" d="M48.1298 45.1527V37.71C44.0194 37.71 40.687 41.0423 40.687 45.1527C40.687 49.2631 44.0194 52.5955 48.1298 52.5955C52.2401 52.5955 55.5725 49.2631 55.5725 45.1527H48.1298Z" fill="url(#paint1_linear_14_1887)"/>
</g>
<path fill-rule="evenodd" clip-rule="evenodd" d="M49.6182 36.7173C53.4545 36.7173 56.5647 39.8275 56.5647 43.6638H49.6182V36.7173Z" fill="url(#paint2_linear_14_1887)"/>
<path fill-rule="evenodd" clip-rule="evenodd" d="M80.3818 101.267C80.3818 97.9534 83.0681 95.2671 86.3818 95.2671H97.2521L80.3818 112.137V101.267Z" fill="#E8ECF1"/>
<g filter="url(#filter4_d_14_1887)">
<rect x="83.3589" y="34.7329" width="3.96947" height="17.8626" fill="#F44336"/>
</g>
<g filter="url(#filter5_d_14_1887)">
<rect x="77.4043" y="38.7021" width="3.96947" height="13.8931" fill="#F4A21B"/>
</g>
<g filter="url(#filter6_d_14_1887)">
<rect x="71.4502" y="42.6714" width="3.96947" height="9.92366" fill="#1AC964"/>
</g>
<g filter="url(#filter7_d_14_1887)">
<rect x="65.4961" y="47.6333" width="3.96947" height="4.96183" fill="#F4A21B"/>
</g>
<rect x="42.6719" y="62.519" width="45.6489" height="1.98473" rx="0.992366" fill="#BCC6D6"/>
<rect x="42.6719" y="69.4653" width="35.7252" height="1.98473" rx="0.992366" fill="#BCC6D6"/>
<rect x="42.6719" y="76.4121" width="25.8015" height="1.98473" rx="0.992366" fill="#BCC6D6"/>
<defs>
<filter id="filter0_ddd_14_1887" x="44.6411" y="14.8701" width="45.9434" height="56.6182" filterUnits="userSpaceOnUse" color-interpolation-filters="sRGB">
<feFlood flood-opacity="0" result="BackgroundImageFix"/>
<feColorMatrix in="SourceAlpha" type="matrix" values="0 0 0 0 0 0 0 0 0 0 0 0 0 0 0 0 0 0 127 0" result="hardAlpha"/>
<feOffset dx="3" dy="2"/>
<feGaussianBlur stdDeviation="1.5"/>
<feColorMatrix type="matrix" values="0 0 0 0 0 0 0 0 0 0 0 0 0 0 0 0 0 0 0.08 0"/>
<feBlend mode="normal" in2="BackgroundImageFix" result="effect1_dropShadow_14_1887"/>
<feColorMatrix in="SourceAlpha" type="matrix" values="0 0 0 0 0 0 0 0 0 0 0 0 0 0 0 0 0 0 127 0" result="hardAlpha"/>
<feOffset dx="1" dy="1"/>
<feGaussianBlur stdDeviation="1.5"/>
<feColorMatrix type="matrix" values="0 0 0 0 0 0 0 0 0 0 0 0 0 0 0 0 0 0 0.08 0"/>
<feBlend mode="normal" in2="effect1_dropShadow_14_1887" result="effect2_dropShadow_14_1887"/>
<feColorMatrix in="SourceAlpha" type="matrix" values="0 0 0 0 0 0 0 0 0 0 0 0 0 0 0 0 0 0 127 0" result="hardAlpha"/>
<feOffset/>
<feGaussianBlur stdDeviation="0.5"/>
<feColorMatrix type="matrix" values="0 0 0 0 0.164706 0 0 0 0 0.2 0 0 0 0 0.243137 0 0 0 0.3 0"/>
<feBlend mode="normal" in2="effect2_dropShadow_14_1887" result="effect3_dropShadow_14_1887"/>
<feBlend mode="normal" in="SourceGraphic" in2="effect3_dropShadow_14_1887" result="shape"/>
</filter>
<filter id="filter1_ddd_14_1887" x="36.7021" y="19.832" width="61.1206" height="76.4658" filterUnits="userSpaceOnUse" color-interpolation-filters="sRGB">
<feFlood flood-opacity="0" result="BackgroundImageFix"/>
<feColorMatrix in="SourceAlpha" type="matrix" values="0 0 0 0 0 0 0 0 0 0 0 0 0 0 0 0 0 0 127 0" result="hardAlpha"/>
<feOffset dx="3" dy="2"/>
<feGaussianBlur stdDeviation="1.5"/>
<feColorMatrix type="matrix" values="0 0 0 0 0 0 0 0 0 0 0 0 0 0 0 0 0 0 0.08 0"/>
<feBlend mode="normal" in2="BackgroundImageFix" result="effect1_dropShadow_14_1887"/>
<feColorMatrix in="SourceAlpha" type="matrix" values="0 0 0 0 0 0 0 0 0 0 0 0 0 0 0 0 0 0 127 0" result="hardAlpha"/>
<feOffset dx="1" dy="1"/>
<feGaussianBlur stdDeviation="1.5"/>
<feColorMatrix type="matrix" values="0 0 0 0 0 0 0 0 0 0 0 0 0 0 0 0 0 0 0.08 0"/>
<feBlend mode="normal" in2="effect1_dropShadow_14_1887" result="effect2_dropShadow_14_1887"/>
<feColorMatrix in="SourceAlpha" type="matrix" values="0 0 0 0 0 0 0 0 0 0 0 0 0 0 0 0 0 0 127 0" result="hardAlpha"/>
<feOffset/>
<feGaussianBlur stdDeviation="0.5"/>
<feColorMatrix type="matrix" values="0 0 0 0 0.164706 0 0 0 0 0.2 0 0 0 0 0.243137 0 0 0 0.3 0"/>
<feBlend mode="normal" in2="effect2_dropShadow_14_1887" result="effect3_dropShadow_14_1887"/>
<feBlend mode="normal" in="SourceGraphic" in2="effect3_dropShadow_14_1887" result="shape"/>
</filter>
<filter id="filter2_ddd_14_1887" x="30.748" y="25.7861" width="72.5039" height="91.3511" filterUnits="userSpaceOnUse" color-interpolation-filters="sRGB">
<feFlood flood-opacity="0" result="BackgroundImageFix"/>
<feColorMatrix in="SourceAlpha" type="matrix" values="0 0 0 0 0 0 0 0 0 0 0 0 0 0 0 0 0 0 127 0" result="hardAlpha"/>
<feOffset dx="3" dy="2"/>
<feGaussianBlur stdDeviation="1.5"/>
<feColorMatrix type="matrix" values="0 0 0 0 0 0 0 0 0 0 0 0 0 0 0 0 0 0 0.08 0"/>
<feBlend mode="normal" in2="BackgroundImageFix" result="effect1_dropShadow_14_1887"/>
<feColorMatrix in="SourceAlpha" type="matrix" values="0 0 0 0 0 0 0 0 0 0 0 0 0 0 0 0 0 0 127 0" result="hardAlpha"/>
<feOffset dx="1" dy="1"/>
<feGaussianBlur stdDeviation="1.5"/>
<feColorMatrix type="matrix" values="0 0 0 0 0 0 0 0 0 0 0 0 0 0 0 0 0 0 0.08 0"/>
<feBlend mode="normal" in2="effect1_dropShadow_14_1887" result="effect2_dropShadow_14_1887"/>
<feColorMatrix in="SourceAlpha" type="matrix" values="0 0 0 0 0 0 0 0 0 0 0 0 0 0 0 0 0 0 127 0" result="hardAlpha"/>
<feOffset/>
<feGaussianBlur stdDeviation="0.5"/>
<feColorMatrix type="matrix" values="0 0 0 0 0.164706 0 0 0 0 0.2 0 0 0 0 0.243137 0 0 0 0.3 0"/>
<feBlend mode="normal" in2="effect2_dropShadow_14_1887" result="effect3_dropShadow_14_1887"/>
<feBlend mode="normal" in="SourceGraphic" in2="effect3_dropShadow_14_1887" result="shape"/>
</filter>
<filter id="filter3_d_14_1887" x="34.687" y="34.71" width="26.8853" height="26.8853" filterUnits="userSpaceOnUse" color-interpolation-filters="sRGB">
<feFlood flood-opacity="0" result="BackgroundImageFix"/>
<feColorMatrix in="SourceAlpha" type="matrix" values="0 0 0 0 0 0 0 0 0 0 0 0 0 0 0 0 0 0 127 0" result="hardAlpha"/>
<feOffset dy="3"/>
<feGaussianBlur stdDeviation="3"/>
<feColorMatrix type="matrix" values="0 0 0 0 0.0862745 0 0 0 0 0.462745 0 0 0 0 0.886275 0 0 0 0.8 0"/>
<feBlend mode="normal" in2="BackgroundImageFix" result="effect1_dropShadow_14_1887"/>
<feBlend mode="normal" in="SourceGraphic" in2="effect1_dropShadow_14_1887" result="shape"/>
</filter>
<filter id="filter4_d_14_1887" x="80.3589" y="33.7329" width="9.96924" height="23.8628" filterUnits="userSpaceOnUse" color-interpolation-filters="sRGB">
<feFlood flood-opacity="0" result="BackgroundImageFix"/>
<feColorMatrix in="SourceAlpha" type="matrix" values="0 0 0 0 0 0 0 0 0 0 0 0 0 0 0 0 0 0 127 0" result="hardAlpha"/>
<feOffset dy="2"/>
<feGaussianBlur stdDeviation="1.5"/>
<feColorMatrix type="matrix" values="0 0 0 0 0.956863 0 0 0 0 0.262745 0 0 0 0 0.211765 0 0 0 0.6 0"/>
<feBlend mode="normal" in2="BackgroundImageFix" result="effect1_dropShadow_14_1887"/>
<feBlend mode="normal" in="SourceGraphic" in2="effect1_dropShadow_14_1887" result="shape"/>
</filter>
<filter id="filter5_d_14_1887" x="74.4043" y="37.7021" width="9.96924" height="19.8931" filterUnits="userSpaceOnUse" color-interpolation-filters="sRGB">
<feFlood flood-opacity="0" result="BackgroundImageFix"/>
<feColorMatrix in="SourceAlpha" type="matrix" values="0 0 0 0 0 0 0 0 0 0 0 0 0 0 0 0 0 0 127 0" result="hardAlpha"/>
<feOffset dy="2"/>
<feGaussianBlur stdDeviation="1.5"/>
<feColorMatrix type="matrix" values="0 0 0 0 1 0 0 0 0 0.733333 0 0 0 0 0.0156863 0 0 0 1 0"/>
<feBlend mode="normal" in2="BackgroundImageFix" result="effect1_dropShadow_14_1887"/>
<feBlend mode="normal" in="SourceGraphic" in2="effect1_dropShadow_14_1887" result="shape"/>
</filter>
<filter id="filter6_d_14_1887" x="68.4502" y="41.6714" width="9.96924" height="15.9238" filterUnits="userSpaceOnUse" color-interpolation-filters="sRGB">
<feFlood flood-opacity="0" result="BackgroundImageFix"/>
<feColorMatrix in="SourceAlpha" type="matrix" values="0 0 0 0 0 0 0 0 0 0 0 0 0 0 0 0 0 0 127 0" result="hardAlpha"/>
<feOffset dy="2"/>
<feGaussianBlur stdDeviation="1.5"/>
<feColorMatrix type="matrix" values="0 0 0 0 0.101961 0 0 0 0 0.788235 0 0 0 0 0.392157 0 0 0 0.8 0"/>
<feBlend mode="normal" in2="BackgroundImageFix" result="effect1_dropShadow_14_1887"/>
<feBlend mode="normal" in="SourceGraphic" in2="effect1_dropShadow_14_1887" result="shape"/>
</filter>
<filter id="filter7_d_14_1887" x="62.4961" y="46.6333" width="9.96924" height="10.9619" filterUnits="userSpaceOnUse" color-interpolation-filters="sRGB">
<feFlood flood-opacity="0" result="BackgroundImageFix"/>
<feColorMatrix in="SourceAlpha" type="matrix" values="0 0 0 0 0 0 0 0 0 0 0 0 0 0 0 0 0 0 127 0" result="hardAlpha"/>
<feOffset dy="2"/>
<feGaussianBlur stdDeviation="1.5"/>
<feColorMatrix type="matrix" values="0 0 0 0 1 0 0 0 0 0.733333 0 0 0 0 0.0156863 0 0 0 1 0"/>
<feBlend mode="normal" in2="BackgroundImageFix" result="effect1_dropShadow_14_1887"/>
<feBlend mode="normal" in="SourceGraphic" in2="effect1_dropShadow_14_1887" result="shape"/>
</filter>
<linearGradient id="paint0_linear_14_1887" x1="132.774" y1="91.6188" x2="100.29" y2="32.7866" gradientUnits="userSpaceOnUse">
<stop stop-opacity="0.01"/>
<stop offset="1" stop-opacity="0.1"/>
</linearGradient>
<linearGradient id="paint1_linear_14_1887" x1="45.9488" y1="33.2962" x2="37.1212" y2="46.9092" gradientUnits="userSpaceOnUse">
<stop stop-color="#31AEF3"/>
<stop offset="1" stop-color="#1676E2"/>
</linearGradient>
<linearGradient id="paint2_linear_14_1887" x1="49.6182" y1="36.7173" x2="49.6182" y2="43.6638" gradientUnits="userSpaceOnUse">
<stop stop-color="#FAD961"/>
<stop offset="1" stop-color="#F76B1C"/>
</linearGradient>
</defs>
</svg>
