<svg width="131" height="130" viewBox="0 0 131 130" fill="none" xmlns="http://www.w3.org/2000/svg">
<rect width="130" height="130" rx="10" fill="#F7F8FA"/>
<rect x="0.5" y="0.5" width="129" height="129" rx="9.5" stroke="#DBE1E8" stroke-opacity="0.6"/>
<path d="M44.9299 129.89L107.813 128.89C116.643 129.26 122.523 128.443 125.456 126.437C128.388 124.43 130.07 120.512 130.501 114.683V72L109.737 30L20.5269 109.118L44.9299 129.89Z" fill="url(#paint0_linear_26_39)"/>
<path d="M28.692 33H103.308C105.983 33 106.953 33.278 107.931 33.801C108.908 34.324 109.676 35.091 110.199 36.069C110.722 37.047 111 38.017 111 40.692V105.308C111 107.983 110.722 108.953 110.199 109.931C109.676 110.908 108.909 111.676 107.931 112.199C106.953 112.722 105.983 113 103.308 113H28.692C26.017 113 25.047 112.722 24.069 112.199C23.092 111.676 22.324 110.909 21.801 109.931C21.278 108.953 21 107.983 21 105.308V40.692C21 38.017 21.278 37.047 21.801 36.069C22.324 35.092 23.091 34.324 24.069 33.801C25.047 33.278 26.017 33 28.692 33Z" fill="black"/>
<path d="M28.692 33H103.308C105.983 33 106.953 33.278 107.931 33.801C108.908 34.324 109.676 35.091 110.199 36.069C110.722 37.047 111 38.017 111 40.692V105.308C111 107.983 110.722 108.953 110.199 109.931C109.676 110.908 108.909 111.676 107.931 112.199C106.953 112.722 105.983 113 103.308 113H28.692C26.017 113 25.047 112.722 24.069 112.199C23.092 111.676 22.324 110.909 21.801 109.931C21.278 108.953 21 107.983 21 105.308V40.692C21 38.017 21.278 37.047 21.801 36.069C22.324 35.092 23.091 34.324 24.069 33.801C25.047 33.278 26.017 33 28.692 33Z" fill="#E8ECF1"/>
<path d="M28.692 30H103.308C105.983 30 106.953 30.278 107.931 30.801C108.908 31.324 109.676 32.091 110.199 33.069C110.722 34.047 111 35.017 111 37.692V102.308C111 104.983 110.722 105.953 110.199 106.931C109.676 107.908 108.909 108.676 107.931 109.199C106.953 109.722 105.983 110 103.308 110H28.692C26.017 110 25.047 109.722 24.069 109.199C23.092 108.676 22.324 107.909 21.801 106.931C21.278 105.953 21 104.983 21 102.308V37.692C21 35.017 21.278 34.047 21.801 33.069C22.324 32.092 23.091 31.324 24.069 30.801C25.047 30.278 26.017 30 28.692 30Z" fill="black"/>
<path d="M28.692 30H103.308C105.983 30 106.953 30.278 107.931 30.801C108.908 31.324 109.676 32.091 110.199 33.069C110.722 34.047 111 35.017 111 37.692V102.308C111 104.983 110.722 105.953 110.199 106.931C109.676 107.908 108.909 108.676 107.931 109.199C106.953 109.722 105.983 110 103.308 110H28.692C26.017 110 25.047 109.722 24.069 109.199C23.092 108.676 22.324 107.909 21.801 106.931C21.278 105.953 21 104.983 21 102.308V37.692C21 35.017 21.278 34.047 21.801 33.069C22.324 32.092 23.091 31.324 24.069 30.801C25.047 30.278 26.017 30 28.692 30Z" fill="#F7F8FA"/>
<path d="M28.692 27H103.308C105.983 27 106.953 27.278 107.931 27.801C108.908 28.324 109.676 29.091 110.199 30.069C110.722 31.047 111 32.017 111 34.692V90.79L94.458 107H28.692C26.017 107 25.047 106.722 24.069 106.199C23.092 105.676 22.324 104.909 21.801 103.931C21.278 102.953 21 101.983 21 99.308V34.692C21 32.017 21.278 31.047 21.801 30.069C22.324 29.092 23.091 28.324 24.069 27.801C25.047 27.278 26.017 27 28.692 27Z" fill="black"/>
<path d="M28.692 27H103.308C105.983 27 106.953 27.278 107.931 27.801C108.908 28.324 109.676 29.091 110.199 30.069C110.722 31.047 111 32.017 111 34.692V90.79L94.458 107H28.692C26.017 107 25.047 106.722 24.069 106.199C23.092 105.676 22.324 104.909 21.801 103.931C21.278 102.953 21 101.983 21 99.308V34.692C21 32.017 21.278 31.047 21.801 30.069C22.324 29.092 23.091 28.324 24.069 27.801C25.047 27.278 26.017 27 28.692 27Z" fill="white"/>
<path d="M100.45 97.3001L104 97.4651L94.2701 107L94.1741 103.455C94.0841 100.143 96.6981 97.3851 100.01 97.2951C100.157 97.2921 100.304 97.2931 100.45 97.3001V97.3001Z" fill="#BCC6D6"/>
<path d="M100.45 90.3001L111 90.7901L94.4581 107L94.1741 96.4551C94.0841 93.1431 96.6981 90.3851 100.01 90.2951C100.157 90.2921 100.304 90.2931 100.45 90.3001V90.3001Z" fill="url(#paint1_linear_26_39)"/>
<path d="M28.692 27H103.308C105.983 27 106.953 27.278 107.931 27.801C108.908 28.324 109.676 29.091 110.199 30.069C110.722 31.047 111 32.017 111 34.692V52H21V34.692C21 32.017 21.278 31.047 21.801 30.069C22.324 29.092 23.091 28.324 24.069 27.801C25.047 27.278 26.017 27 28.692 27Z" fill="url(#paint2_linear_26_39)"/>
<rect opacity="0.481" x="27" y="67" width="78" height="3" rx="1.5" fill="#BCC6D6"/>
<rect opacity="0.404" x="27" y="76" width="78" height="3" rx="1.5" fill="#7D8D9F"/>
<rect opacity="0.481" x="27" y="85" width="65" height="3" rx="1.5" fill="#BCC6D6"/>
<rect opacity="0.404" x="27" y="95" width="39" height="3" rx="1.5" fill="#7D8D9F"/>
<circle cx="62" cy="33" r="4.5" fill="#E8ECF1" stroke="#BCC6D6"/>
<circle cx="67" cy="38" r="21" fill="url(#paint3_linear_26_39)"/>
<circle cx="67" cy="38" r="18" fill="url(#paint4_linear_26_39)"/>
<circle cx="67" cy="39" r="3" fill="#DBE1E8"/>
<circle cx="67" cy="39" r="2" fill="#4B5C72"/>
<path d="M67 38.5C66.7239 38.5 66.5 38.7239 66.5 39C66.5 39.2761 66.7239 39.5 67 39.5V38.5ZM73.519 39.5C73.7951 39.5 74.019 39.2761 74.019 39C74.019 38.7239 73.7951 38.5 73.519 38.5V39.5ZM67.5 32C67.5 31.7239 67.2761 31.5 67 31.5C66.7239 31.5 66.5 31.7239 66.5 32H67.5ZM66.5 39C66.5 39.2761 66.7239 39.5 67 39.5C67.2761 39.5 67.5 39.2761 67.5 39H66.5ZM67 39.5H73.519V38.5H67V39.5ZM66.5 32V39H67.5V32H66.5Z" fill="#4B5C72"/>
<circle cx="67" cy="39" r="1" fill="#FFBB04"/>
<rect x="66" y="22" width="2" height="4" rx="1" fill="black"/>
<rect x="66" y="22" width="2" height="4" rx="1" fill="#4B5C72"/>
<rect x="66" y="50" width="2" height="4" rx="1" fill="black"/>
<rect x="66" y="50" width="2" height="4" rx="1" fill="#4B5C72"/>
<rect x="51" y="37" width="4" height="2" rx="1" fill="black"/>
<rect x="51" y="37" width="4" height="2" rx="1" fill="#4B5C72"/>
<rect x="79" y="37" width="4" height="2" rx="1" fill="black"/>
<rect x="79" y="37" width="4" height="2" rx="1" fill="#4B5C72"/>
<defs>
<linearGradient id="paint0_linear_26_39" x1="137.07" y1="93.2363" x2="106.222" y2="28.7421" gradientUnits="userSpaceOnUse">
<stop stop-opacity="0.01"/>
<stop offset="1" stop-opacity="0.1"/>
</linearGradient>
<linearGradient id="paint1_linear_26_39" x1="98.6327" y1="93.2275" x2="103.242" y2="98.8888" gradientUnits="userSpaceOnUse">
<stop stop-color="#F0F2F6"/>
<stop offset="0.50609" stop-color="#F7F8FA"/>
<stop offset="1" stop-color="#E8ECF1"/>
</linearGradient>
<linearGradient id="paint2_linear_26_39" x1="-2.79517" y1="43.259" x2="20.791" y2="92.7147" gradientUnits="userSpaceOnUse">
<stop stop-color="#00CCFF"/>
<stop offset="1" stop-color="#0A5DF1"/>
</linearGradient>
<linearGradient id="paint3_linear_26_39" x1="34.8967" y1="44.3153" x2="79.2499" y2="70.1466" gradientUnits="userSpaceOnUse">
<stop stop-color="#00CCFF"/>
<stop offset="1" stop-color="#0A5DF1"/>
</linearGradient>
<linearGradient id="paint4_linear_26_39" x1="85" y1="56" x2="85" y2="20" gradientUnits="userSpaceOnUse">
<stop stop-color="white"/>
<stop offset="1" stop-color="white"/>
</linearGradient>
</defs>
</svg>
