<svg width="130" height="130" viewBox="0 0 130 130" fill="none" xmlns="http://www.w3.org/2000/svg">
<rect width="130" height="130" rx="10" fill="#F7F8FA"/>
<rect x="0.5" y="0.5" width="129" height="129" rx="9.5" stroke="#DBE1E8" stroke-opacity="0.6"/>
<path fill-rule="evenodd" clip-rule="evenodd" d="M57.974 129.027C57.974 129.027 92.3099 129.555 114.44 129.555C121.92 129.555 129 123.895 129 113.5C129.324 108.999 129 95.9999 129 95.9999V79.9999V63.9999L108.941 41.9258C108.941 41.9258 64.9798 66.0357 57.974 78.0904C50.9682 90.1451 38.7266 109.697 38.7266 109.697L57.974 129.027Z" fill="url(#paint0_linear_14_2030)"/>
<g filter="url(#filter0_d_14_2030)">
<circle cx="37.4942" cy="37.4942" r="37.4942" transform="matrix(-1 0 0 1 102.556 28.5552)" fill="black" fill-opacity="0.01"/>
</g>
<circle cx="37.4942" cy="37.4942" r="37.4942" transform="matrix(-1 0 0 1 102.556 28.5552)" fill="url(#paint1_linear_14_2030)"/>
<mask id="mask0_14_2030" style="mask-type:luminance" maskUnits="userSpaceOnUse" x="27" y="28" width="76" height="76">
<circle cx="37.4942" cy="37.4942" r="37.4942" transform="matrix(-1 0 0 1 102.877 28.4443)" fill="white"/>
</mask>
<g mask="url(#mask0_14_2030)">
<circle opacity="0.481631" cx="37.4942" cy="37.4942" r="37.4942" transform="matrix(-1 0 0 1 102.778 28.334)" fill="url(#paint2_linear_14_2030)"/>
<g opacity="0.530971">
<circle opacity="0.01" cx="37.4942" cy="37.4942" r="37.4942" transform="matrix(-1 0 0 1 102.778 28.334)" fill="url(#paint3_linear_14_2030)"/>
<mask id="mask1_14_2030" style="mask-type:luminance" maskUnits="userSpaceOnUse" x="27" y="28" width="76" height="76">
<circle cx="37.4942" cy="37.4942" r="37.4942" transform="matrix(-1 0 0 1 102.778 28.334)" fill="white"/>
</mask>
<g mask="url(#mask1_14_2030)">
<g opacity="0.726655">
<path fill-rule="evenodd" clip-rule="evenodd" d="M58.0215 70.0879L47.3544 76.7546V99.4056L58.0215 100.365V70.0879Z" fill="url(#paint4_linear_14_2030)"/>
<g style="mix-blend-mode:multiply">
<path fill-rule="evenodd" clip-rule="evenodd" d="M58.0215 70.0879L47.3544 76.7546V99.4056L58.0215 100.365V70.0879Z" fill="url(#paint5_linear_14_2030)"/>
</g>
<path opacity="0.996466" fill-rule="evenodd" clip-rule="evenodd" d="M50.5364 88.4566V89.3245H54.6919V88.4566H50.5364ZM50.5364 87.0102V87.8781H54.6919V87.0102H50.5364ZM50.5364 85.5637V86.4316H54.6919V85.5637H50.5364ZM50.5364 84.1173V84.9852H54.6919V84.1173H50.5364ZM50.5364 82.6709V83.5387H54.6919V82.6709H50.5364ZM50.5364 81.2244V82.0923H54.6919V81.2244H50.5364ZM50.5364 79.778V80.6458H54.6919V79.778H50.5364ZM50.5364 78.3315V79.1994H54.6919V78.3315H50.5364Z" fill="#F7F8FA"/>
<path fill-rule="evenodd" clip-rule="evenodd" d="M84.4814 81.6595L77.9704 78.7666V98.279L84.4814 97.4798V81.6595Z" fill="url(#paint6_linear_14_2030)"/>
<g style="mix-blend-mode:multiply">
<path fill-rule="evenodd" clip-rule="evenodd" d="M84.4814 81.6595L77.9704 78.7666V98.279L84.4814 97.4798V81.6595Z" fill="url(#paint7_linear_14_2030)"/>
</g>
<path opacity="0.996466" fill-rule="evenodd" clip-rule="evenodd" d="M79.9129 88.7301V89.3087H82.4063V88.7301H79.9129ZM79.9129 87.573V88.1515H82.4063V87.573H79.9129ZM79.9129 86.4158V86.9944H82.4063V86.4158H79.9129ZM79.9129 85.2586V85.8372H82.4063V85.2586H79.9129ZM79.9129 84.1015V84.6801H82.4063V84.1015H79.9129ZM79.9129 82.9443V83.5229H82.4062V82.9443H79.9129Z" fill="#F7F8FA"/>
<rect width="10.6671" height="27.0483" transform="matrix(-1 0 0 1 79.3555 72.981)" fill="url(#paint8_linear_14_2030)"/>
<path opacity="0.996466" fill-rule="evenodd" clip-rule="evenodd" d="M71.8735 89.7579V90.6258H77.1318V89.7579H71.8735ZM71.8735 88.0222V88.8901H77.1318V88.0222H71.8735ZM71.8735 86.2865V87.1543H77.1318V86.2865H71.8735ZM71.8735 84.5507V85.4186H77.1318V84.5507H71.8735ZM71.8735 82.815V83.6829H77.1318V82.815H71.8735ZM71.8735 81.0793V81.9471H77.1318V81.0793H71.8735ZM71.8735 79.3435V80.2114H77.1318V79.3435H71.8735ZM71.8735 77.6078V78.4757H77.1318V77.6078H71.8735ZM71.8735 75.8721V76.7399H77.1318V75.8721H71.8735Z" fill="#F7F8FA"/>
<path fill-rule="evenodd" clip-rule="evenodd" d="M70.2124 63.0005H57.0517V101.476H70.2124V63.0005Z" fill="url(#paint9_linear_14_2030)"/>
<path opacity="0.996466" fill-rule="evenodd" clip-rule="evenodd" d="M59.8223 88.4566V89.3244H63.1468V88.4566H59.8223ZM64.1057 88.4566V89.3244H67.4302V88.4566H64.1057ZM64.1057 87.0101V87.8779H67.4302V87.0101H64.1057ZM59.8223 87.0101V87.8779H63.1468V87.0101H59.8223ZM64.1057 84.1172V84.9851H67.4302V84.1172H64.1057ZM59.8223 84.1172V84.9851H63.1468V84.1172H59.8223ZM64.1057 82.6708V83.5387H67.4302V82.6708H64.1057ZM59.8223 82.6708V83.5387H63.1468V82.6708H59.8223ZM59.8223 81.2243V82.0922H63.1468V81.2243H59.8223ZM64.1057 81.2243V82.0922H67.4302V81.2243H64.1057ZM64.1057 79.7779V80.6458H67.4302V79.7779H64.1057ZM59.8223 79.7779V80.6458H63.1468V79.7779H59.8223ZM64.1057 76.885V77.7529H67.4302V76.885H64.1057ZM59.8223 76.885V77.7529H63.1468V76.885H59.8223ZM64.1057 75.4386V76.3064H67.4302V75.4386H64.1057ZM59.8223 75.4386V76.3064H63.1468V75.4386H59.8223ZM59.8223 73.9921V74.86H63.1468V73.9921H59.8223ZM64.1057 73.9921V74.86H67.4302V73.9921H64.1057ZM64.1057 72.5457V73.4135H67.4302V72.5457H64.1057ZM59.8223 72.5457V73.4135H63.1468V72.5457H59.8223ZM64.1057 69.6528V70.5207H67.4302V69.6528H64.1057ZM59.8223 69.6528V70.5207H63.1468V69.6528H59.8223ZM59.8223 68.2064V69.0742H63.1468V68.2064H59.8223ZM64.1057 68.2064V69.0742H67.4302V68.2064H64.1057ZM64.1057 66.7599V67.6278H67.4302V66.7599H64.1057ZM59.8223 66.7599V67.6278H63.1468V66.7599H59.8223ZM59.8223 65.3135V66.1813H63.1468V65.3135H59.8223ZM64.1057 65.3135V66.1813H67.4302V65.3135H64.1057Z" fill="#F7F8FA"/>
</g>
</g>
</g>
</g>
<path fill-rule="evenodd" clip-rule="evenodd" d="M50.1946 39.2728C49.9735 38.5926 49.0444 38.7652 49.0444 39.487V49.8747L54.437 50.4001L50.1946 39.2728" fill="#C4DCF7"/>
<path fill-rule="evenodd" clip-rule="evenodd" d="M48.2739 39.6212C48.6499 39.5911 49.0304 39.6597 49.2731 39.9678L51.3554 49.428L49.448 49.6298L48.2739 49.5466V39.6212" fill="#1676E2"/>
<path fill-rule="evenodd" clip-rule="evenodd" d="M97.5638 51.1704L109.589 53.7411C110.077 53.9091 109.969 54.7195 109.459 54.7195L86.7925 55.0223L97.5638 51.1704" fill="#C4DCF7"/>
<path fill-rule="evenodd" clip-rule="evenodd" d="M95.2665 54.6372C95.2665 56.1263 93.8867 57.3335 92.185 57.3335C90.4825 57.3335 89.1035 56.1263 89.1035 54.6372C89.1035 53.1481 90.4825 51.9409 92.185 51.9409C93.8867 51.9409 95.2665 53.1481 95.2665 54.6372" fill="#C4DCF7"/>
<path fill-rule="evenodd" clip-rule="evenodd" d="M92.5703 51.9409C94.0594 51.9409 95.2666 53.1481 95.2666 54.6372C95.2666 56.1263 94.0594 57.3335 92.5703 57.3335C91.0812 57.3335 89.874 56.1263 89.874 54.6372C89.874 53.1481 91.0812 51.9409 92.5703 51.9409" fill="#EDF4FD"/>
<path fill-rule="evenodd" clip-rule="evenodd" d="M92.5705 56.5628C93.6328 56.5628 94.4964 55.6984 94.4964 54.6369C94.4964 53.5745 93.6328 52.7109 92.5705 52.7109C91.5073 52.7122 90.6458 53.5737 90.6445 54.6369C90.6445 55.6984 91.5089 56.5628 92.5705 56.5628" fill="#1676E2"/>
<path fill-rule="evenodd" clip-rule="evenodd" d="M93.3408 55.0222C93.5495 55.0222 93.7259 54.6694 93.7259 54.2518C93.7259 53.8343 93.5495 53.4814 93.3408 53.4814C93.1328 53.4814 92.9556 53.8343 92.9556 54.2518C92.9556 54.6694 93.1328 55.0222 93.3408 55.0222" fill="#FFFFFE"/>
<path fill-rule="evenodd" clip-rule="evenodd" d="M103.559 35.2204C103.559 35.2204 97.0229 26.2725 83.0492 32.6835C69.0754 39.0938 49.384 50.1286 49.0473 52.3172C48.7099 54.505 78.0718 59.1149 97.3649 51.8912C113.764 45.7513 112.128 36.7126 103.559 35.2204" fill="#E9F3FF"/>
<path fill-rule="evenodd" clip-rule="evenodd" d="M97.2494 51.8658C80.9869 57.9387 57.6392 55.7023 50.585 53.5175C84.3742 53.5252 90.9293 41.3649 90.9293 41.3649C95.1047 35.6426 100.015 34.6427 103.5 35.0849C112.148 36.5871 113.799 45.6852 97.2494 51.8658" fill="#C4DCF7"/>
<path fill-rule="evenodd" clip-rule="evenodd" d="M97.8587 31.1562C97.2506 31.1215 96.6406 31.1448 96.0368 31.2256L97.0907 33.4519C98.445 33.0875 99.9072 32.908 101.429 33.0513C100.333 32.2573 99.131 31.6195 97.8587 31.1562ZM81.3998 38.2282C81.3998 37.7198 81.0531 37.3038 80.6294 37.3038C80.2057 37.3038 79.859 37.7198 79.859 38.2282V39.4608C79.859 39.9692 80.2057 40.3852 80.6294 40.3852C81.0531 40.3852 81.3998 39.9692 81.3998 39.4608V38.2282ZM109.692 39.6149C109.165 42.8967 105.462 46.841 97.13 50.1813C81.7426 56.3496 59.8202 55.3405 51.0703 53.5355C50.996 53.5358 50.9229 53.537 50.8497 53.5381H50.8496H50.8495H50.8494H50.8493H50.8491H50.849H50.8489H50.8488H50.8487H50.8486H50.8485H50.8484C50.7612 53.5395 50.674 53.5409 50.585 53.5409C57.64 55.7041 80.9876 57.9173 97.2501 51.9061C107.574 48.0905 110.814 43.1517 109.692 39.6149ZM78.3183 38.8445C78.742 38.8445 79.0887 39.2605 79.0887 39.769V41.0016C79.0887 41.51 78.742 41.926 78.3183 41.926C77.8946 41.926 77.5479 41.51 77.5479 41.0016V39.769C77.5479 39.2605 77.8946 38.8445 78.3183 38.8445ZM76.0072 40.5393C76.0072 40.0309 75.8338 39.6149 75.622 39.6149C75.4101 39.6149 75.2368 40.0309 75.2368 40.5393V41.7719C75.2368 42.2804 75.4101 42.6964 75.622 42.6964C75.8338 42.6964 76.0072 42.2804 76.0072 41.7719V40.5393ZM74.0813 40.3852C74.2931 40.3852 74.4664 40.5932 74.4664 40.8475V41.4638C74.4664 41.718 74.2931 41.926 74.0813 41.926C73.8694 41.926 73.6961 41.718 73.6961 41.4638V40.8475C73.6961 40.5932 73.8694 40.3852 74.0813 40.3852ZM71.385 41.6179C71.385 41.3636 71.2116 41.1556 70.9998 41.1556C70.7879 41.1556 70.6146 41.3636 70.6146 41.6179V42.2342C70.6146 42.4884 70.7879 42.6964 70.9998 42.6964C71.2116 42.6964 71.385 42.4884 71.385 42.2342V41.6179ZM69.459 41.926C69.6709 41.926 69.8442 42.134 69.8442 42.3882V43.0045C69.8442 43.2587 69.6709 43.4667 69.459 43.4667C69.2472 43.4667 69.0739 43.2587 69.0739 43.0045V42.3882C69.0739 42.134 69.2472 41.926 69.459 41.926ZM67.5331 43.1586C67.5331 42.9044 67.3598 42.6964 67.1479 42.6964C66.9361 42.6964 66.7627 42.9044 66.7627 43.1586V43.7749C66.7627 44.0291 66.9361 44.2371 67.1479 44.2371C67.3598 44.2371 67.5331 44.0291 67.5331 43.7749V43.1586ZM64.8368 45.0075C65.0487 45.0075 65.222 45.2155 65.222 45.4697V46.086C65.222 46.3402 65.0487 46.5482 64.8368 46.5482C64.625 46.5482 64.4516 46.3402 64.4516 46.086V45.4697C64.4516 45.2155 64.625 45.0075 64.8368 45.0075ZM63.6813 46.2401C63.6813 45.9858 63.5079 45.7778 63.2961 45.7778C63.0842 45.7778 62.9109 45.9858 62.9109 46.2401V46.8564C62.9109 47.1106 63.0842 47.3186 63.2961 47.3186C63.5079 47.3186 63.6813 47.1106 63.6813 46.8564V46.2401ZM60.2146 46.5482C60.4264 46.5482 60.5998 46.7562 60.5998 47.0104V47.6267C60.5998 47.8809 60.4264 48.0889 60.2146 48.0889C60.0027 48.0889 59.8294 47.8809 59.8294 47.6267V47.0104C59.8294 46.7562 60.0027 46.5482 60.2146 46.5482ZM94.9267 31.9112L96.0368 34.4719C94.493 34.9896 93.1002 35.7507 91.9292 36.5334L91.4146 33.2793C92.7242 32.5413 93.889 32.123 94.9267 31.9112ZM90.9269 34.2223C90.0881 34.7028 89.2841 35.2418 88.5211 35.8354L88.3331 39.6149C88.3331 39.6149 89.5033 38.3723 91.4146 37.105L90.9269 34.2223Z" fill="#1676E2"/>
<path fill-rule="evenodd" clip-rule="evenodd" d="M67.4007 48.0889L19.7618 48.1906C18.7934 48.1929 18.7257 49.7182 19.6886 49.8199L61.16 53.4768C61.3402 53.4961 61.522 53.4583 61.683 53.369L67.7975 49.9786C68.651 49.5048 68.3622 48.1266 67.4007 48.0889" fill="#C4DCF7"/>
<path fill-rule="evenodd" clip-rule="evenodd" d="M19.7527 48.152L67.0534 48.0889C67.9447 48.0889 68.3037 48.4309 68.3037 48.7706C68.3037 49.1111 68.0433 49.5949 67.2375 49.6296L19.7527 49.39C19.339 49.39 19 49.1111 19 48.7706C19 48.4309 19.339 48.152 19.7527 48.152" fill="#EDF4FD"/>
<path fill-rule="evenodd" clip-rule="evenodd" d="M28.081 49.6299L58.2888 51.1575L56.463 52.7114L26.7036 50.1637L28.081 49.6299" fill="#1676E2"/>
<path fill-rule="evenodd" clip-rule="evenodd" d="M49.8147 53.0965C49.8147 55.0111 48.2626 56.5632 46.348 56.5632C44.4334 56.5632 42.8813 55.0111 42.8813 53.0965C42.8813 51.182 44.4334 49.6299 46.348 49.6299C48.2626 49.6299 49.8147 51.182 49.8147 53.0965" fill="#C4DCF7"/>
<path fill-rule="evenodd" clip-rule="evenodd" d="M46.7333 49.6299C48.4359 49.6299 49.8148 51.1822 49.8148 53.0965C49.8148 55.0109 48.4359 56.5632 46.7333 56.5632C45.0308 56.5632 43.6519 55.0109 43.6519 53.0965C43.6519 51.1822 45.0308 49.6299 46.7333 49.6299" fill="#EDF4FD"/>
<path fill-rule="evenodd" clip-rule="evenodd" d="M46.7335 56.563C48.0077 56.563 49.0446 55.3535 49.0446 53.8667C49.0446 52.3799 48.0077 51.1704 46.7335 51.1704C45.4593 51.1704 44.4224 52.3799 44.4224 53.8667C44.4224 55.3535 45.4593 56.563 46.7335 56.563" fill="#1676E2"/>
<path fill-rule="evenodd" clip-rule="evenodd" d="M46.7333 53.4817C47.1508 53.4817 47.5036 53.1288 47.5036 52.7113C47.5036 52.2937 47.1508 51.9409 46.7333 51.9409C46.3157 51.9409 45.9629 52.2937 45.9629 52.7113C45.9629 53.1288 46.3157 53.4817 46.7333 53.4817" fill="#EDF4FD"/>
<path opacity="0.362979" fill-rule="evenodd" clip-rule="evenodd" d="M21.364 41.2631C20.0584 41.2631 19 40.171 19 38.8236C19 37.4763 20.0584 36.3841 21.364 36.3841C21.4211 36.3841 21.4778 36.3862 21.534 36.3902C21.7164 34.6301 23.1602 33.2593 24.9143 33.2593C26.28 33.2593 27.4576 34.0901 27.9983 35.2888C28.142 35.2522 28.2923 35.2328 28.447 35.2328C29.2286 35.2328 29.8983 35.7282 30.1769 36.4314C30.3275 36.4003 30.4833 36.3841 30.6428 36.3841C31.9483 36.3841 33.0067 37.4763 33.0067 38.8236C33.0067 40.171 31.9483 41.2631 30.6428 41.2631H21.364Z" fill="url(#paint10_linear_14_2030)"/>
<path opacity="0.362979" fill-rule="evenodd" clip-rule="evenodd" d="M92.4864 14C90.6146 14 89.059 15.3841 88.7439 17.2063C88.6413 17.191 88.5364 17.183 88.4297 17.183C87.8191 17.183 87.2682 17.4438 86.8773 17.8624C86.3913 17.4625 85.7738 17.2233 85.1017 17.2233C83.8102 17.2233 82.7203 18.1065 82.3778 19.3147C82.1979 19.2646 82.0085 19.2379 81.813 19.2379C80.6276 19.2379 79.6665 20.221 79.6665 21.4337C79.6665 22.6465 80.6276 23.6296 81.813 23.6296C82.5778 23.6296 95.0571 23.5894 96.2082 23.5894C97.8422 23.5965 98.9258 22.1029 98.9258 20.5675C98.9258 19.0586 97.7507 17.8305 96.2858 17.7885C96.234 15.6872 94.5528 14 92.4864 14Z" fill="url(#paint11_linear_14_2030)"/>
<path fill-rule="evenodd" clip-rule="evenodd" d="M85.3975 107.625H86.2119V108.541C86.2119 108.766 86.0296 108.949 85.8047 108.949C85.5798 108.949 85.3975 108.766 85.3975 108.541V107.625Z" fill="#3C6EBB"/>
<path fill-rule="evenodd" clip-rule="evenodd" d="M72.5693 108.949H73.3838V109.865C73.3838 110.09 73.2015 110.272 72.9766 110.272C72.7517 110.272 72.5693 110.09 72.5693 109.865V108.949Z" fill="#3C6EBB"/>
<path fill-rule="evenodd" clip-rule="evenodd" d="M67.93 79.3741L85.1887 78.472C85.49 78.4563 85.7911 78.5077 86.0701 78.6225L89.1188 79.8775L90.0719 104.928C90.1337 106.553 88.9109 107.942 87.2907 108.086L69.8487 109.639L66.195 108.734C65.5136 108.565 65.0352 107.953 65.0352 107.251V82.4242C65.0352 80.7993 66.3074 79.4589 67.93 79.3741Z" fill="url(#paint12_linear_14_2030)"/>
<g style="mix-blend-mode:multiply">
<path fill-rule="evenodd" clip-rule="evenodd" d="M67.93 79.3741L85.1887 78.472C85.49 78.4563 85.7911 78.5077 86.0701 78.6225L89.1188 79.8775L90.0719 104.928C90.1337 106.553 88.9109 107.942 87.2907 108.086L69.8487 109.639L66.195 108.734C65.5136 108.565 65.0352 107.953 65.0352 107.251V82.4242C65.0352 80.7993 66.3074 79.4589 67.93 79.3741Z" fill="url(#paint13_linear_14_2030)"/>
</g>
<path fill-rule="evenodd" clip-rule="evenodd" d="M71.6981 80.5688L88.0313 79.6468C89.1541 79.5835 90.1157 80.4423 90.179 81.5651C90.1812 81.6033 90.1823 81.6415 90.1823 81.6798V105.049C90.1823 106.625 88.9839 107.942 87.4153 108.09L70.4867 109.69C69.6471 109.769 68.902 109.153 68.8227 108.313C68.8182 108.265 68.8159 108.217 68.8159 108.169V83.6182C68.8159 81.9982 70.0807 80.66 71.6981 80.5688Z" fill="url(#paint14_linear_14_2030)"/>
<path fill-rule="evenodd" clip-rule="evenodd" d="M73.4346 85.1375L85.4289 84.4692C85.7826 84.4495 86.1161 84.6355 86.2851 84.9469L86.4111 85.1789L86.0664 89.7083C86.0327 90.1501 85.6878 90.5045 85.247 90.5502L73.7924 91.7358L73.3267 91.6538C72.8887 91.5767 72.5693 91.1961 72.5693 90.7514V86.0524C72.5693 85.5662 72.9492 85.1646 73.4346 85.1375Z" fill="url(#paint15_linear_14_2030)"/>
<path fill-rule="evenodd" clip-rule="evenodd" d="M73.8473 85.4484L85.6573 84.7903C86.1064 84.7653 86.4908 85.1091 86.5158 85.5583C86.5166 85.5733 86.5171 85.5885 86.5171 85.6036V90.0235C86.5171 90.4487 86.1899 90.8024 85.766 90.8355L73.956 91.7574C73.5075 91.7924 73.1156 91.4573 73.0806 91.0088C73.0789 90.9877 73.0781 90.9666 73.0781 90.9454V86.2617C73.0781 85.8294 73.4157 85.4725 73.8473 85.4484Z" fill="url(#paint16_linear_14_2030)"/>
<path fill-rule="evenodd" clip-rule="evenodd" d="M73.4349 79.9822L72.3149 80.0348V70.6906C72.3149 69.581 73.1832 68.6654 74.2912 68.6064L80.807 68.2598C81.9581 68.1986 82.9408 69.0821 83.0021 70.2331C83.004 70.2701 83.005 70.307 83.005 70.344V79.4441L81.8851 79.4908V70.344C81.8851 70.3269 81.8846 70.3097 81.8837 70.2926C81.8554 69.7592 81.3999 69.3498 80.8665 69.3782L74.3507 69.7248C73.8372 69.7521 73.4349 70.1764 73.4349 70.6906V79.9822Z" fill="url(#paint17_linear_14_2030)"/>
<g style="mix-blend-mode:multiply">
<path fill-rule="evenodd" clip-rule="evenodd" d="M73.4349 79.9822L72.3149 80.0348V70.6906C72.3149 69.581 73.1832 68.6654 74.2912 68.6064L80.807 68.2598C81.9581 68.1986 82.9408 69.0821 83.0021 70.2331C83.004 70.2701 83.005 70.307 83.005 70.344V79.4441L81.8851 79.4908V70.344C81.8851 70.3269 81.8846 70.3097 81.8837 70.2926C81.8554 69.7592 81.3999 69.3498 80.8665 69.3782L74.3507 69.7248C73.8372 69.7521 73.4349 70.1764 73.4349 70.6906V79.9822Z" fill="url(#paint18_linear_14_2030)"/>
</g>
<path fill-rule="evenodd" clip-rule="evenodd" d="M75.8292 70.0354C75.2956 70.0597 74.8433 69.6469 74.8189 69.1133C74.7945 68.5797 75.2073 68.1274 75.741 68.103L79.5985 67.9268C80.1322 67.9024 80.5845 68.3153 80.6089 68.8489C80.6332 69.3825 80.2204 69.8348 79.6868 69.8592L75.8292 70.0354Z" fill="url(#paint19_linear_14_2030)"/>
<path fill-rule="evenodd" clip-rule="evenodd" d="M72.3164 79.6109C72.3164 79.6109 72.5655 79.7766 72.918 79.7766C73.2704 79.7766 73.437 79.5752 73.437 79.5752C73.437 79.5752 73.5798 79.7414 73.4651 79.894C73.3503 80.0467 72.7168 80.1453 72.3164 79.9326C72.3164 79.9326 72.2214 79.8697 72.2364 79.7608C72.2514 79.6519 72.3164 79.6109 72.3164 79.6109Z" fill="url(#paint20_linear_14_2030)"/>
<path fill-rule="evenodd" clip-rule="evenodd" d="M81.8838 79.2559C81.8838 79.2559 82.1329 79.4216 82.4853 79.4216C82.8378 79.4216 83.0044 79.2202 83.0044 79.2202C83.0044 79.2202 83.1472 79.3864 83.0324 79.539C82.9176 79.6917 82.2842 79.7903 81.8838 79.5776C81.8838 79.5776 81.7888 79.5148 81.8038 79.4059C81.8188 79.297 81.8838 79.2559 81.8838 79.2559Z" fill="url(#paint21_linear_14_2030)"/>
<path opacity="0.643834" d="M75.1448 87.972C75.0316 87.9776 74.9546 87.7563 74.9727 87.4776C74.9908 87.1989 75.0973 86.9685 75.2105 86.9629L84.3677 86.5089C84.4809 86.5033 84.558 86.7246 84.5398 87.0033C84.5217 87.2819 84.4152 87.5124 84.302 87.518L75.1448 87.972Z" fill="#CDE0FF"/>
<path fill-rule="evenodd" clip-rule="evenodd" d="M73.4346 94.3006L85.4289 93.6323C85.7826 93.6126 86.1161 93.7986 86.2851 94.11L86.4111 94.342L86.0462 101.903C86.0244 102.355 85.6756 102.723 85.2253 102.77L73.7924 103.953L73.3267 103.871C72.8887 103.794 72.5693 103.414 72.5693 102.969V95.2155C72.5693 94.7293 72.9492 94.3277 73.4346 94.3006Z" fill="url(#paint22_linear_14_2030)"/>
<path fill-rule="evenodd" clip-rule="evenodd" d="M73.8473 94.6115L85.6573 93.9534C86.1064 93.9284 86.4908 94.2722 86.5158 94.7213C86.5166 94.7364 86.5171 94.7515 86.5171 94.7667V102.241C86.5171 102.666 86.1899 103.02 85.766 103.053L73.956 103.975C73.5075 104.01 73.1156 103.675 73.0806 103.226C73.0789 103.205 73.0781 103.184 73.0781 103.163V95.4247C73.0781 94.9925 73.4157 94.6356 73.8473 94.6115Z" fill="url(#paint23_linear_14_2030)"/>
<path opacity="0.643834" d="M75.1733 97.2952C75.0604 97.3048 74.9757 97.0863 74.9841 96.8071C74.9925 96.528 75.0908 96.294 75.2038 96.2844L84.3395 95.5111C84.4525 95.5016 84.5372 95.7201 84.5288 95.9992C84.5204 96.2783 84.4221 96.5124 84.3091 96.5219L75.1733 97.2952Z" fill="#CDE0FF"/>
<g filter="url(#filter1_d_14_2030)">
<path fill-rule="evenodd" clip-rule="evenodd" d="M42.4471 88.083L68.7858 90.2948C69.3132 90.339 69.7187 90.78 69.7187 91.3093V110.922C69.7187 111.358 69.4409 111.746 69.0279 111.886L66.0414 112.9L40.2956 109.356L38.7266 89.9585L41.5408 88.291C41.814 88.1291 42.1308 88.0564 42.4471 88.083Z" fill="url(#paint24_linear_14_2030)"/>
</g>
<path fill-rule="evenodd" clip-rule="evenodd" d="M39.3738 89.8127L65.7426 92.3214C66.2652 92.3712 66.6643 92.81 66.6643 93.335V111.937C66.6643 112.499 66.2085 112.955 65.6462 112.955C65.608 112.955 65.5698 112.953 65.5318 112.949L39.163 109.967C38.6483 109.909 38.2593 109.474 38.2593 108.956V90.8262C38.2593 90.2639 38.7151 89.8081 39.2774 89.8081C39.3096 89.8081 39.3418 89.8096 39.3738 89.8127Z" fill="url(#paint25_linear_14_2030)"/>
<path fill-rule="evenodd" clip-rule="evenodd" d="M50.6803 89.4687L50.2712 89.8791L49.1523 86.979C49.44 86.2527 50.0056 85.8379 50.6803 85.8379C50.7162 85.8379 50.7521 85.8395 50.7879 85.8426L57.5943 86.4443C58.2248 86.5001 58.7084 87.0283 58.7084 87.6613V90.2218L58.3012 90.6285L57.4867 90.1008V87.6613L50.6803 87.0596V89.4687Z" fill="url(#paint26_linear_14_2030)"/>
<path fill-rule="evenodd" clip-rule="evenodd" d="M50.273 89.8759L49.0513 89.7575V87.4668C49.0513 86.7921 49.5983 86.2451 50.273 86.2451C50.3089 86.2451 50.3448 86.2467 50.3806 86.2499L57.1869 86.8516C57.8175 86.9073 58.3011 87.4355 58.3011 88.0685V90.629L57.0794 90.508V88.0685L50.273 87.4668V89.8759Z" fill="#ED5B3A"/>
<path fill-rule="evenodd" clip-rule="evenodd" d="M42.373 110.331L42.373 90.0732L45.194 88.3115L48.0182 88.5497L45.0522 90.3542V110.633L42.373 110.331Z" fill="url(#paint27_linear_14_2030)"/>
<path fill-rule="evenodd" clip-rule="evenodd" d="M42.0674 110.296L42.0674 90.0733L44.8943 88.2871L47.7185 88.5253L44.7465 90.3245V110.599L42.0674 110.296Z" fill="#ED5B3A"/>
<path fill-rule="evenodd" clip-rule="evenodd" d="M61.8188 112.532L61.8188 91.906L64.8315 89.9629L67.6701 90.2005L64.498 92.2056V112.83L61.8188 112.532Z" fill="url(#paint28_linear_14_2030)"/>
<path fill-rule="evenodd" clip-rule="evenodd" d="M61.4116 112.486L61.4116 91.9056L64.4667 89.9312L67.3053 90.1688L64.0908 92.1836V112.784L61.4116 112.486Z" fill="#ED5B3A"/>
<defs>
<filter id="filter0_d_14_2030" x="26.5674" y="26.5552" width="80.9883" height="80.9883" filterUnits="userSpaceOnUse" color-interpolation-filters="sRGB">
<feFlood flood-opacity="0" result="BackgroundImageFix"/>
<feColorMatrix in="SourceAlpha" type="matrix" values="0 0 0 0 0 0 0 0 0 0 0 0 0 0 0 0 0 0 127 0" result="hardAlpha"/>
<feOffset dx="2" dy="1"/>
<feGaussianBlur stdDeviation="1.5"/>
<feColorMatrix type="matrix" values="0 0 0 0 0 0 0 0 0 0 0 0 0 0 0 0 0 0 0.1 0"/>
<feBlend mode="normal" in2="BackgroundImageFix" result="effect1_dropShadow_14_2030"/>
<feBlend mode="normal" in="SourceGraphic" in2="effect1_dropShadow_14_2030" result="shape"/>
</filter>
<filter id="filter1_d_14_2030" x="37.7266" y="84.0776" width="38.9922" height="32.8223" filterUnits="userSpaceOnUse" color-interpolation-filters="sRGB">
<feFlood flood-opacity="0" result="BackgroundImageFix"/>
<feColorMatrix in="SourceAlpha" type="matrix" values="0 0 0 0 0 0 0 0 0 0 0 0 0 0 0 0 0 0 127 0" result="hardAlpha"/>
<feOffset dx="3"/>
<feGaussianBlur stdDeviation="2"/>
<feColorMatrix type="matrix" values="0 0 0 0 0 0 0 0 0 0 0 0 0 0 0 0 0 0 0.2 0"/>
<feBlend mode="normal" in2="BackgroundImageFix" result="effect1_dropShadow_14_2030"/>
<feBlend mode="normal" in="SourceGraphic" in2="effect1_dropShadow_14_2030" result="shape"/>
</filter>
<linearGradient id="paint0_linear_14_2030" x1="135.177" y1="97.4001" x2="107.137" y2="42.0952" gradientUnits="userSpaceOnUse">
<stop stop-opacity="0.01"/>
<stop offset="1" stop-opacity="0.12"/>
</linearGradient>
<linearGradient id="paint1_linear_14_2030" x1="48.012" y1="86.0877" x2="87.9486" y2="18.6944" gradientUnits="userSpaceOnUse">
<stop stop-color="#C8FAFE"/>
<stop offset="1" stop-color="#1290FF"/>
</linearGradient>
<linearGradient id="paint2_linear_14_2030" x1="50.5619" y1="78.0295" x2="83.3459" y2="10.6089" gradientUnits="userSpaceOnUse">
<stop stop-color="#C8FAFE"/>
<stop offset="1" stop-color="#3CA4FF"/>
</linearGradient>
<linearGradient id="paint3_linear_14_2030" x1="50.5619" y1="78.0295" x2="83.3459" y2="10.6089" gradientUnits="userSpaceOnUse">
<stop stop-color="#C8FAFE"/>
<stop offset="1" stop-color="#3CA4FF"/>
</linearGradient>
<linearGradient id="paint4_linear_14_2030" x1="50.8291" y1="101.592" x2="34.8376" y2="90.0058" gradientUnits="userSpaceOnUse">
<stop stop-color="#C8FAFE"/>
<stop offset="1" stop-color="#3CA4FF"/>
</linearGradient>
<linearGradient id="paint5_linear_14_2030" x1="50.8291" y1="101.592" x2="34.8376" y2="90.0058" gradientUnits="userSpaceOnUse">
<stop stop-color="#C8FAFE"/>
<stop offset="1" stop-color="#3CA4FF"/>
</linearGradient>
<linearGradient id="paint6_linear_14_2030" x1="80.0913" y1="99.0703" x2="69.9716" y2="92.1258" gradientUnits="userSpaceOnUse">
<stop stop-color="#C8FAFE"/>
<stop offset="1" stop-color="#3CA4FF"/>
</linearGradient>
<linearGradient id="paint7_linear_14_2030" x1="80.0913" y1="99.0703" x2="69.9716" y2="92.1258" gradientUnits="userSpaceOnUse">
<stop stop-color="#C8FAFE"/>
<stop offset="1" stop-color="#3CA4FF"/>
</linearGradient>
<linearGradient id="paint8_linear_14_2030" x1="7.19239" y1="28.1452" x2="21.9029" y2="16.2146" gradientUnits="userSpaceOnUse">
<stop stop-color="#C8FAFE"/>
<stop offset="1" stop-color="#3CA4FF"/>
</linearGradient>
<linearGradient id="paint9_linear_14_2030" x1="61.3387" y1="103.036" x2="41.2112" y2="88.8773" gradientUnits="userSpaceOnUse">
<stop stop-color="#C8FAFE"/>
<stop offset="1" stop-color="#3CA4FF"/>
</linearGradient>
<linearGradient id="paint10_linear_14_2030" x1="33.3444" y1="41.2631" x2="33.3444" y2="33.2593" gradientUnits="userSpaceOnUse">
<stop stop-color="#C8FAFE"/>
<stop offset="1" stop-color="#3CA4FF"/>
</linearGradient>
<linearGradient id="paint11_linear_14_2030" x1="99.39" y1="23.6296" x2="99.39" y2="14" gradientUnits="userSpaceOnUse">
<stop stop-color="#C8FAFE"/>
<stop offset="1" stop-color="#3CA4FF"/>
</linearGradient>
<linearGradient id="paint12_linear_14_2030" x1="73.8154" y1="65.8245" x2="52.8671" y2="94.7183" gradientUnits="userSpaceOnUse">
<stop stop-color="#00CCFF"/>
<stop offset="1" stop-color="#0A5DF1"/>
</linearGradient>
<linearGradient id="paint13_linear_14_2030" x1="73.8154" y1="65.8245" x2="52.8671" y2="94.7183" gradientUnits="userSpaceOnUse">
<stop stop-color="#00CCFF"/>
<stop offset="1" stop-color="#0A5DF1"/>
</linearGradient>
<linearGradient id="paint14_linear_14_2030" x1="76.3083" y1="67.4519" x2="55.473" y2="92.8859" gradientUnits="userSpaceOnUse">
<stop stop-color="#00CCFF"/>
<stop offset="1" stop-color="#0A5DF1"/>
</linearGradient>
<linearGradient id="paint15_linear_14_2030" x1="85.709" y1="94.0105" x2="89.1397" y2="81.8227" gradientUnits="userSpaceOnUse">
<stop stop-color="#144187"/>
<stop offset="1" stop-color="#538EE9"/>
</linearGradient>
<linearGradient id="paint16_linear_14_2030" x1="77.7907" y1="81.9612" x2="75.0615" y2="90.9952" gradientUnits="userSpaceOnUse">
<stop stop-color="#40D9FF"/>
<stop offset="1" stop-color="#629AFF"/>
</linearGradient>
<linearGradient id="paint17_linear_14_2030" x1="83.8774" y1="52.4105" x2="63.4067" y2="68.9791" gradientUnits="userSpaceOnUse">
<stop stop-color="#77EBFF"/>
<stop offset="1" stop-color="#5A93EB"/>
</linearGradient>
<linearGradient id="paint18_linear_14_2030" x1="83.8774" y1="52.4105" x2="63.4067" y2="68.9791" gradientUnits="userSpaceOnUse">
<stop stop-color="#77EBFF"/>
<stop offset="1" stop-color="#5A93EB"/>
</linearGradient>
<linearGradient id="paint19_linear_14_2030" x1="76.3724" y1="65.8928" x2="75.31" y2="70.159" gradientUnits="userSpaceOnUse">
<stop stop-color="#5A93EA"/>
<stop offset="1" stop-color="#3768B4"/>
</linearGradient>
<linearGradient id="paint20_linear_14_2030" x1="71.4651" y1="78.1242" x2="71.2896" y2="79.9692" gradientUnits="userSpaceOnUse">
<stop stop-color="#6A9FF1"/>
<stop offset="1" stop-color="#3768B4"/>
</linearGradient>
<linearGradient id="paint21_linear_14_2030" x1="81.0325" y1="77.7692" x2="80.857" y2="79.6142" gradientUnits="userSpaceOnUse">
<stop stop-color="#6A9FF1"/>
<stop offset="1" stop-color="#3768B4"/>
</linearGradient>
<linearGradient id="paint22_linear_14_2030" x1="85.709" y1="107.184" x2="92.1481" y2="91.077" gradientUnits="userSpaceOnUse">
<stop stop-color="#144187"/>
<stop offset="1" stop-color="#538EE9"/>
</linearGradient>
<linearGradient id="paint23_linear_14_2030" x1="77.7907" y1="89.8852" x2="72.609" y2="101.812" gradientUnits="userSpaceOnUse">
<stop stop-color="#40D9FF"/>
<stop offset="1" stop-color="#629AFF"/>
</linearGradient>
<linearGradient id="paint24_linear_14_2030" x1="26.1851" y1="98.5053" x2="50.4288" y2="125.267" gradientUnits="userSpaceOnUse">
<stop stop-color="#EBA931"/>
<stop offset="1" stop-color="#EA7D18"/>
</linearGradient>
<linearGradient id="paint25_linear_14_2030" x1="69.4765" y1="115.741" x2="69.4765" y2="82.4948" gradientUnits="userSpaceOnUse">
<stop stop-color="#FF8800"/>
<stop offset="1" stop-color="#F7CE03"/>
</linearGradient>
<linearGradient id="paint26_linear_14_2030" x1="67.5358" y1="86.4559" x2="65.6015" y2="69.0776" gradientUnits="userSpaceOnUse">
<stop stop-color="#8A2B16"/>
<stop offset="1" stop-color="#F88461"/>
</linearGradient>
<linearGradient id="paint27_linear_14_2030" x1="47.7373" y1="75.381" x2="35.3732" y2="74.3392" gradientUnits="userSpaceOnUse">
<stop stop-color="#C54327"/>
<stop offset="1" stop-color="#F88461"/>
</linearGradient>
<linearGradient id="paint28_linear_14_2030" x1="67.3789" y1="76.7162" x2="54.5656" y2="75.6239" gradientUnits="userSpaceOnUse">
<stop stop-color="#C54327"/>
<stop offset="1" stop-color="#F88461"/>
</linearGradient>
</defs>
</svg>
