<svg xmlns="http://www.w3.org/2000/svg" viewBox="0 0 473.95 107.23"><defs><style>.cls-1{fill:#fff;}</style></defs><g id="Layer_2" data-name="Layer 2"><g id="Layer_1-2" data-name="Layer 1"><path class="cls-1" d="M191.52,77a8.27,8.27,0,0,1-4.08,3.15,15.47,15.47,0,0,1-6.08,1.23q-6,0-9.37-3t-3.41-8.46a11.85,11.85,0,0,1,4.81-10q4.8-3.61,13.65-3.62a15.41,15.41,0,0,1,3.59.52q0-6.51-8.24-6.51a18.21,18.21,0,0,0-8.12,1.62l-1.86-6.68A24.07,24.07,0,0,1,183,43.09q8.45,0,12.36,3.84t3.93,14.55v7.89c0,4.92,1,8,3,9.27a4.64,4.64,0,0,1-2.37,2.29,9.83,9.83,0,0,1-3,.43A4.78,4.78,0,0,1,193.52,80a7.08,7.08,0,0,1-2-3m-.82-13.67a18.3,18.3,0,0,0-3.31-.45q-10.2,0-10.2,6.68,0,5,5.76,5,7.74,0,7.75-7.75Z"></path><path class="cls-1" d="M230.08,51.81A9,9,0,0,0,225,50.29,6.88,6.88,0,0,0,219.7,53a9.88,9.88,0,0,0-2.33,6.65v21h-8.61V43.78h8.61v3.38A12.26,12.26,0,0,1,227,43.09a13.82,13.82,0,0,1,6.75,1.34Z"></path><polygon class="cls-1" points="276.28 81.36 273.14 81.36 263.02 58.69 252.93 81.36 249.76 81.36 235.84 43.78 244.9 43.78 252.31 65.79 261.33 43.78 264.43 43.78 273.77 65.93 281.76 43.78 290.23 43.78 276.28 81.36"></polygon><path class="cls-1" d="M300.87,80.67V50.84h-4.71V43.78h13.43V80.67Zm4.45-51.18a5,5,0,0,1,0,10A5,5,0,0,1,301.79,31a4.82,4.82,0,0,1,3.53-1.46"></path><path class="cls-1" d="M341.58,80.67V59.35c0-3.15-.6-5.44-1.81-6.89s-3.17-2.17-5.91-2.17a10.42,10.42,0,0,0-7.4,3.72V80.67h-8.61V43.78h6.2l1.58,3.44q3.51-4.12,10.37-4.13c4.38,0,7.85,1.32,10.38,3.95s3.81,6.29,3.81,11V80.67Z"></path><path class="cls-1" d="M398.39,62.14q0-8.45,4.87-13.74t12.87-5.31q8.4,0,13.05,5.1t4.65,14q0,8.82-4.73,14t-13,5.2q-8.4,0-13.07-5.26t-4.67-14m9,0q0,12.19,8.78,12.19a7.56,7.56,0,0,0,6.39-3.17q2.36-3.16,2.36-9,0-12-8.75-12a7.59,7.59,0,0,0-6.41,3.17q-2.37,3.16-2.37,8.85"></path><polygon class="cls-1" points="463.52 80.67 454.05 68.65 445.54 80.67 435.34 80.67 449.5 61.79 436.48 43.78 446.36 43.78 454.15 55.04 462.83 43.78 472.64 43.78 458.49 61.79 473.95 80.67 463.52 80.67"></polygon><path class="cls-1" d="M153.58,80.67V78.43a8.79,8.79,0,0,1-3.62,2,16.19,16.19,0,0,1-5.27.88q-7.71,0-12.14-4.89t-4.42-13.64q0-8.74,5.08-14.25a16.61,16.61,0,0,1,12.73-5.49,17,17,0,0,1,7.64,1.72V39.05L162.19,28v52.7Zm0-28.07a9.1,9.1,0,0,0-5.75-2.21q-5.18,0-8,3.15c-1.86,2.11-2.79,5.12-2.79,9.05q0,11.5,11.09,11.5a8.41,8.41,0,0,0,3.05-.74,5.47,5.47,0,0,0,2.36-1.5Z"></path><path class="cls-1" d="M167.68,28.76h-3.93a7.3,7.3,0,0,0-7.29,7.29V49.31l2.83,0V36.05a4.47,4.47,0,0,1,4.46-4.47h3.93Z"></path><path class="cls-1" d="M163.85,34.56h3.83V25.87h-3.93c-5.61,0-10.17,5.47-10.17,11.08V49.29c2.87,0,5.73,0,8.6.09V36.64a1.92,1.92,0,0,1,1.67-2.08"></path><path class="cls-1" d="M359.06,80.33l-.9-54.22,9.51,0V44.48a16.87,16.87,0,0,1,7.65-1.73,16.6,16.6,0,0,1,12.73,5.5q5.07,5.49,5.07,14.24T388.7,76.13Q384.28,81,376.56,81a16.23,16.23,0,0,1-5.27-.88,8.79,8.79,0,0,1-3.62-2v2.24Zm8.61-8.82A5.54,5.54,0,0,0,370,73a8.45,8.45,0,0,0,3.05.74q11.09,0,11.09-11.5,0-5.89-2.79-9c-1.86-2.1-4.51-3.16-8-3.16a9.12,9.12,0,0,0-5.75,2.21Z"></path><path class="cls-1" d="M61,78.44V75.37A12,12,0,0,1,56,78.18a22,22,0,0,1-7.21,1.2q-10.56,0-16.62-6.69T26.14,54q0-12,7-19.49A22.69,22.69,0,0,1,50.51,27,23.08,23.08,0,0,1,61,29.36V21.48L72.76,6.31V78.44ZM61,40a12.48,12.48,0,0,0-7.87-3Q46,37,42.22,41.31T38.4,53.69q0,15.75,15.18,15.74a11.35,11.35,0,0,0,4.17-1,7.66,7.66,0,0,0,3.23-2Z"></path><path class="cls-1" d="M80.34,4H75a10,10,0,0,0-10,10V32.08c1.29,0,2.58,0,3.86,0V13.93A6.12,6.12,0,0,1,75,7.82h5.38Z"></path><path class="cls-1" d="M75.1,11.9h5.24V0H75C67.28,0,61,7.48,61,15.16V32.05c3.93,0,7.85,0,11.77.13V14.75A2.63,2.63,0,0,1,75.1,11.9"></path><path class="cls-1" d="M58.92,95.41H14a2.16,2.16,0,0,1-2.16-2.16V64.56H0V93.25a14,14,0,0,0,14,14H58.6q.15-5.91.32-11.82"></path><path class="cls-1" d="M95.41,43.73V93.25a2.16,2.16,0,0,1-2.15,2.16H52.67c-.15,3.93-.28,7.88-.4,11.82h41a14,14,0,0,0,14-14V43.32l-11.82.41"></path><path class="cls-1" d="M7.85,85.32V14A6.14,6.14,0,0,1,14,7.86h37.4V4H14A10,10,0,0,0,4,14V83.41c1.29.67,2.58,1.32,3.88,1.91"></path><path class="cls-1" d="M11.81,87V14.9c0-3.1,2.57-2.94,2.57-2.94h33.8l4.1-.15L52.24,0H14A14,14,0,0,0,0,14v67.2A84.08,84.08,0,0,0,11.81,87"></path><path class="cls-1" d="M93.25,4H86.64V7.83l6.61,0A6.14,6.14,0,0,1,99.38,14V51.67l3.88-.22V14a10,10,0,0,0-10-10"></path><path class="cls-1" d="M93.19,0H85.73V11.82h7.51A2.17,2.17,0,0,1,95.41,14V51.89c3.94-.21,7.89-.42,11.82-.67V14a14,14,0,0,0-14-14"></path></g></g></svg>